<?xml version="1.0" encoding="iso-8859-1"?>
<!-- Generator: Adobe Illustrator 19.0.0, SVG Export Plug-In . SVG Version: 6.00 Build 0)  -->
<svg version="1.1" id="Capa_1" xmlns="http://www.w3.org/2000/svg" xmlns:xlink="http://www.w3.org/1999/xlink" x="0px" y="0px"
	 viewBox="0 0 511.95 511.95" style="enable-background:new 0 0 511.95 511.95;" xml:space="preserve">
<g>
	<circle style="fill:#C0DFEB;" cx="293.398" cy="220.338" r="218.551"/>
	<circle style="fill:#C0DFEB;" cx="293.398" cy="220.338" r="218.551"/>
</g>
<path style="fill:#A6D2E3;" d="M293.471,402.547c-17.947,0-35.852-2.686-53.216-7.981
	c-96.071-29.301-150.392-131.299-121.091-227.37c11.617-38.089,34.707-70.579,66.777-93.96
	c31.056-22.642,69.19-35.112,107.377-35.112c17.947,0,35.852,2.686,53.216,7.982c46.539,14.194,84.765,45.662,107.636,88.606
	c22.871,42.945,27.65,92.225,13.455,138.764c-11.617,38.089-34.708,70.58-66.777,93.961c-31.054,22.64-69.191,35.111-107.376,35.111
	C293.47,402.547,293.473,402.547,293.471,402.547z"/>
<path style="fill:#3993B7;" d="M434.283,250.045c-12.312,58.428-58.449,101.051-113.622,111.698
	c-18.301,3.556-37.59,3.577-56.972-0.51c-77.81-16.408-127.597-92.794-111.189-170.605
	c16.221-76.947,91.089-126.485,168.005-111.709c0.863,0.166,1.737,0.333,2.6,0.52C400.916,95.849,450.691,172.235,434.283,250.045z"
	/>
<path style="fill:#3E9DC3;" d="M434.283,250.045c-12.312,58.428-58.449,101.051-113.622,111.698
	c-0.863-0.156-1.716-0.333-2.568-0.51c-77.81-16.408-127.597-92.794-111.189-170.605c12.322-58.418,58.438-101.04,113.601-111.709
	c0.863,0.166,1.737,0.333,2.6,0.52C400.916,95.849,450.691,172.235,434.283,250.045z"/>
<path style="fill:#06638D;" d="M238.753,510.054c-18.707-1.185-37.007-5.428-54.175-12.447
	c-40.585-16.596-74.826-48.664-93.137-92.285l-78.05-186.004c-26.048-62.067-12.79-130.79,28.439-178.476
	c5.542-6.416,12.145-11.064,19.226-14.038c25.538-10.752,57.409,0.208,69.242,28.398l16.866,40.2
	c8.111,19.32-0.977,41.541-20.287,49.641c-36.467,15.306-53.624,57.274-38.318,93.741l41.656,99.262
	c15.296,36.467,57.263,53.624,93.73,38.318c4.794-2.007,9.764-2.964,14.651-2.964c14.828,0,28.897,8.745,34.99,23.261l16.876,40.21
	c0.873,2.09,1.612,4.19,2.204,6.301C302.297,477.341,275.459,512.363,238.753,510.054z"/>
<g>
	<path style="fill:#C0DFEB;" d="M288.105,278.718h-71.307v-11.846c0-29.033,76.649-45.06,76.649-94.998
		c0-26.246-20.905-45.293-47.848-45.293c-24.853,0-45.293,16.259-45.293,39.718c0,8.594,3.252,11.381,8.826,11.381
		c6.503,0,10.22-3.716,10.22-7.665c0-17.188,11.381-25.318,26.246-25.318c19.51,0,28.336,14.632,28.336,27.873
		c0,38.325-77.346,56.21-77.346,94.301v22.53c0,4.181,5.11,6.968,8.826,6.968h82.688c3.716,0,6.736-4.413,6.736-8.826
		C294.84,282.668,291.82,278.718,288.105,278.718z"/>
	<path style="fill:#C0DFEB;" d="M392.859,238.768h-12.311v-39.022c0-4.645-4.877-6.736-9.755-6.736
		c-4.878,0-9.756,2.091-9.756,6.736v39.022h-40.183l50.867-101.27c0.697-1.161,0.929-2.09,0.929-3.252
		c0-4.646-5.806-7.666-9.523-7.666c-3.484,0-6.736,1.626-8.826,5.575l-57.37,113.116c-0.93,1.393-1.161,3.02-1.161,4.413
		c0,4.645,2.788,7.665,7.201,7.665h58.067v32.054c0,4.645,4.878,6.968,9.756,6.968c4.878,0,9.755-2.323,9.755-6.968v-32.054h12.311
		c3.948,0,6.968-4.645,6.968-9.291C399.827,243.414,397.505,238.768,392.859,238.768z"/>
</g>
<path style="fill:#1B87B3;" d="M292.668,443.172C144.566,434.303,27.2,311.395,27.2,161.057c0-48.591,12.26-94.323,33.857-134.252
	c25.538-10.752,57.409,0.208,69.242,28.398l16.866,40.2c8.111,19.32-0.977,41.541-20.287,49.641
	c-36.467,15.306-53.624,57.274-38.318,93.741l41.656,99.262c15.296,36.467,57.263,53.624,93.73,38.318
	c4.794-2.007,9.764-2.964,14.651-2.964c14.828,0,28.897,8.745,34.99,23.261l16.876,40.21
	C291.337,438.961,292.076,441.062,292.668,443.172z"/>
<g>
</g>
<g>
</g>
<g>
</g>
<g>
</g>
<g>
</g>
<g>
</g>
<g>
</g>
<g>
</g>
<g>
</g>
<g>
</g>
<g>
</g>
<g>
</g>
<g>
</g>
<g>
</g>
<g>
</g>
</svg>
