<?xml version="1.0" encoding="iso-8859-1"?>
<!-- Generator: Adobe Illustrator 19.0.0, SVG Export Plug-In . SVG Version: 6.00 Build 0)  -->
<svg version="1.1" id="Capa_1" xmlns="http://www.w3.org/2000/svg" xmlns:xlink="http://www.w3.org/1999/xlink" x="0px" y="0px"
	 viewBox="0 0 512 512" style="enable-background:new 0 0 512 512;" xml:space="preserve">
<rect y="97.103" style="fill:#73c6e8;" width="512" height="353.103"/>
<path style="fill:#CCCCCC;" d="M423.724,61.793H291.31L256,97.103l-35.31-35.31H44.138v308.966H220.69l35.31,35.31l35.31-35.31
	h150.069c14.627,0,26.483-11.855,26.483-26.483l0,0c0-14.627-11.855-26.483-26.483-26.483h-17.655V61.793z"/>
<g>
	<path style="fill:#C0DFEB;" d="M467.862,406.069H256l35.31-35.31h150.069c14.627,0,26.483-11.855,26.483-26.483l0,0V406.069z"/>
	<polygon style="fill:#C0DFEB;" points="44.138,370.759 44.138,406.069 256,406.069 220.69,370.759 	"/>
</g>
<polygon style="fill:#E6E6E6;" points="256,97.103 220.69,61.793 44.138,61.793 44.138,370.759 220.69,370.759 256,406.069 "/>
<path style="fill:#C0DFEB;" d="M467.862,344.276L467.862,344.276c0-14.627-11.855-26.483-26.483-26.483h-17.655V26.483h17.655
	c14.627,0,26.483,11.855,26.483,26.483V344.276z"/>
<g>
	<rect x="79.448" y="291.31" style="fill:#B3B3B3;" width="141.241" height="17.655"/>
	<rect x="97.103" y="256" style="fill:#B3B3B3;" width="17.655" height="17.655"/>
	<rect x="132.414" y="256" style="fill:#B3B3B3;" width="88.276" height="17.655"/>
	<rect x="79.448" y="326.621" style="fill:#B3B3B3;" width="105.931" height="17.655"/>
	<rect x="291.31" y="291.31" style="fill:#B3B3B3;" width="132.414" height="17.655"/>
	<rect x="308.966" y="256" style="fill:#B3B3B3;" width="17.655" height="17.655"/>
	<rect x="344.276" y="256" style="fill:#B3B3B3;" width="79.448" height="17.655"/>
	<rect x="291.31" y="326.621" style="fill:#B3B3B3;" width="97.103" height="17.655"/>
	<rect x="291.31" y="150.069" style="fill:#B3B3B3;" width="132.414" height="17.655"/>
	<rect x="308.966" y="114.759" style="fill:#B3B3B3;" width="17.655" height="17.655"/>
	<rect x="344.276" y="114.759" style="fill:#B3B3B3;" width="79.448" height="17.655"/>
	<rect x="291.31" y="185.379" style="fill:#B3B3B3;" width="97.103" height="17.655"/>
</g>
<rect x="88.276" y="105.931" style="fill:#DA4836;" width="123.586" height="123.586"/>
<polygon style="fill:#FFFFFF;" points="123.586,194.207 123.586,141.241 176.552,167.724 "/>
<g>
	<path style="fill:#999999;" d="M249.759,59.207L225.863,35.31H79.448V17.655h150.069c2.339,0,4.59,0.927,6.241,2.586l26.483,26.483
		L249.759,59.207z"/>
	<rect x="44.138" y="17.655" style="fill:#999999;" width="17.655" height="17.655"/>
	<rect x="176.552" y="476.69" style="fill:#999999;" width="247.172" height="17.655"/>
	<rect x="441.379" y="476.69" style="fill:#999999;" width="17.655" height="17.655"/>
</g>
<g>
</g>
<g>
</g>
<g>
</g>
<g>
</g>
<g>
</g>
<g>
</g>
<g>
</g>
<g>
</g>
<g>
</g>
<g>
</g>
<g>
</g>
<g>
</g>
<g>
</g>
<g>
</g>
<g>
</g>
</svg>
