<svg xmlns="http://www.w3.org/2000/svg" width="1600" height="500" viewBox="0 0 1600 500">
  <defs>
    <linearGradient id="a" x1="14.548%" x2="80.528%" y1="80.299%" y2="-18.29%">
      <stop stop-color="#51D0D6" offset="0%"/>
      <stop stop-color="#047BF6" stop-opacity=".228" offset="100%"/>
    </linearGradient>
    <linearGradient id="b" x1="50%" x2="50%" y1="0%" y2="100%">
      <stop stop-color="#50D0D7" offset="0%"/>
      <stop stop-color="#33B1EB" offset="100%"/>
    </linearGradient>
    <linearGradient id="c" x1="50%" x2="155.006%" y1="0%" y2="203.563%">
      <stop stop-color="#0095FF" offset="0%"/>
      <stop stop-color="#47C7DC" offset="100%"/>
    </linearGradient>
    <linearGradient id="d" x1="17.887%" x2="79.007%" y1="75.309%" y2="-16.017%">
      <stop stop-color="#1F9CF8" stop-opacity=".95" offset="0%"/>
      <stop stop-color="#0578F4" offset="100%"/>
    </linearGradient>
    <linearGradient id="e" x1="16.543%" x2="79.007%" y1="77.318%" y2="-16.017%">
      <stop stop-color="#1F9CF8" offset="0%"/>
      <stop stop-color="#0578F4" offset="100%"/>
    </linearGradient>
  </defs>
  <g fill="none" fill-rule="evenodd">
    <ellipse cx="84.348" cy="84.66" fill="url(#a)" opacity=".45" rx="84.348" ry="84.66" transform="translate(1306 80)"/>
    <polygon fill="url(#b)" opacity=".3" points="1145.973 342 1145.971 303.334 1112.487 284 1079 303.334"/>
    <polygon fill="url(#b)" opacity=".3" points="1032.973 136 1032.971 97.334 999.487 78 966 97.334"/>
    <polygon fill="url(#c)" opacity=".3" points="376.973 159 376.971 120.334 343.487 101 310 120.334"/>
    <polygon fill="url(#c)" opacity=".18" points="426.105 346 426.104 324 407.053 313 388 324" transform="rotate(-180 407.053 329.5)"/>
    <ellipse cx="261.221" cy="345" fill="url(#d)" opacity=".7" rx="87.221" ry="88"/>
    <ellipse cx="579.548" cy="149.5" fill="url(#e)" opacity=".2" rx="106.548" ry="107.5"/>
    <path stroke="#FFFFFF" stroke-width=".75" d="M434.573194,118.561869 L417.607194,128.290869 L434.559194,138.074869 L451.455194,128.319869 L434.573194,118.561869 Z M417.607194,128.290869 L417.603194,147.847869 L434.520194,157.582869 L434.559194,138.074869 L417.607194,128.290869 Z M434.559194,138.074869 L434.520194,157.582869 L451.455194,147.811869 L451.455194,128.319869 L434.559194,138.074869 Z M434.520194,157.582869 L434.548194,177.306869 L468.526194,157.689869 L451.455194,147.811869 L434.520194,157.582869 Z M434.573194,118.561869 L434.560194,98.8388688 L400.570194,118.454869 L417.607194,128.290869 L434.573194,118.561869 Z M417.603194,147.847869 L400.571194,157.687869 L434.548194,177.302869 L434.520194,157.582869 L417.603194,147.847869 Z M451.455194,128.319869 L468.538194,118.456869 L434.560194,98.8388688 L434.576194,118.559869 L451.455194,128.319869 Z M417.607194,128.290869 L400.568194,118.452869 L400.573194,157.687869 L417.603194,147.847869 L417.607194,128.290869 Z M451.455194,147.811869 L468.527194,157.687869 L468.538194,118.456869 L451.455194,128.319869 L451.455194,147.811869 Z M434.550194,216.540869 L434.548194,177.306869 L400.571194,157.688869 L366.593194,177.306869 L434.550194,216.540869 Z M400.573194,157.690869 L400.567194,118.456869 L366.589194,138.072869 L400.573194,157.690869 Z M400.568194,118.452869 L400.581194,79.2218688 L366.536194,98.7978688 L400.568194,118.452869 Z M434.539194,98.8228688 L468.559194,118.473869 L434.539194,98.8228688 Z M468.528194,196.924869 L468.524194,157.690869 L434.548194,177.306869 L468.528194,196.924869 Z M434.548194,177.306869 L434.550194,216.540869 L468.528194,196.929869 L434.548194,177.306869 Z M366.590194,98.8358688 L366.589194,138.072869 L400.570194,118.454869 L366.590194,98.8358688 Z M400.581194,79.2218688 L400.567194,118.456869 L434.560194,98.8388688 L400.581194,79.2218688 Z M468.538194,118.456869 L468.524194,157.689869 L468.538194,118.456869 Z M468.524194,157.690869 L468.528194,196.924869 L502.507194,177.306869 L468.524194,157.690869 Z M451.455194,246.131869 L468.538194,236.268869 L434.560194,216.651869 L451.455194,246.131869 Z M366.536194,216.610869 L400.581194,197.034869 L366.536194,216.610869 Z M468.559194,236.286869 L468.502194,197.016869 L434.539194,216.634869 L468.559194,236.286869 Z M502.558194,255.919869 L502.501194,216.650869 L468.538194,236.268869 L502.558194,255.919869 Z M400.581194,197.034869 L434.560194,216.651869 L400.581194,197.034869 Z M468.524194,197.034869 L468.528194,236.268869 L502.507194,216.650869 L468.524194,197.034869 Z M570.570194,216.737869 L536.594194,197.122869 L570.570194,216.737869 Z M570.572194,255.975869 L570.570194,216.741869 L536.594194,197.122869 L502.615194,216.741869 L570.572194,255.975869 Z M536.595194,197.124869 L502.611194,177.506869 L536.595194,197.124869 Z M162.581194,118.561869 L179.462194,128.319869 L162.581194,118.561869 Z M162.527194,157.582869 L145.610194,147.847869 L162.527194,157.582869 Z M162.527194,157.582869 L162.554194,177.306869 L196.533194,157.689869 L179.462194,147.811869 L162.527194,157.582869 Z M162.567194,98.8388688 L162.581194,118.561869 L162.567194,98.8388688 Z M145.610194,147.847869 L128.578194,157.687869 L162.554194,177.302869 L162.527194,157.582869 L145.610194,147.847869 Z M179.462194,128.319869 L196.545194,118.456869 L162.567194,98.8388688 L162.583194,118.559869 L179.462194,128.319869 Z M128.581194,157.687869 L145.610194,147.847869 L128.581194,157.687869 Z M179.462194,147.811869 L196.534194,157.687869 L196.545194,118.456869 L179.462194,128.319869 L179.462194,147.811869 Z M162.505194,216.678869 L162.503194,177.444869 L128.527194,157.826869 L94.5481937,177.444869 L162.505194,216.678869 Z M196.545194,118.561869 L196.488194,79.2928688 L162.525194,98.9108688 L196.545194,118.561869 Z M230.565194,138.108869 L230.509194,98.8378688 L196.545194,118.456869 L230.565194,138.108869 Z M196.535194,196.924869 L196.531194,157.690869 L162.554194,177.306869 L196.535194,196.924869 Z M162.554194,177.306869 L162.556194,216.540869 L196.535194,196.929869 L162.554194,177.306869 Z M196.545194,118.456869 L196.531194,157.689869 L230.513194,138.072869 L196.545194,118.456869 Z M196.531194,79.2218688 L196.535194,118.456869 L230.513194,98.8388688 L196.531194,79.2218688 Z M94.5511937,50.8268688 L94.5481937,70.3848688 L111.465194,80.1188688 L111.504194,60.6098688 L94.5511937,50.8268688 Z M111.587194,60.5808688 L111.548194,80.0898688 L128.482194,70.3198688 L128.482194,50.8268688 L111.587194,60.5808688 Z M94.5811937,69.8268688 L77.5481937,79.6668688 L111.525194,99.2818688 L111.498194,79.5608688 L94.5811937,69.8268688 Z M128.442194,50.3068688 L145.525194,40.4438688 L111.548194,20.8268688 L111.563194,40.5468688 L128.442194,50.3068688 Z M196.531194,157.690869 L196.535194,196.924869 L230.513194,177.306869 L196.531194,157.690869 Z M298.603194,40.1838688 L281.636194,49.9128688 L298.589194,59.6958688 L315.484194,49.9418688 L298.603194,40.1838688 Z M281.636194,49.9128688 L281.633194,69.4698688 L298.550194,79.2048688 L298.589194,59.6958688 L281.636194,49.9128688 Z M298.589194,59.6958688 L298.550194,79.2048688 L315.484194,69.4338688 L315.484194,49.9418688 L298.589194,59.6958688 Z M298.550194,79.2048688 L298.577194,98.9288688 L332.555194,79.3108688 L315.484194,69.4338688 L298.550194,79.2048688 Z M298.603194,40.1838688 L298.590194,20.4608688 L264.599194,40.0768688 L281.636194,49.9128688 L298.603194,40.1838688 Z M281.633194,69.4698688 L264.600194,79.3098688 L298.577194,98.9248688 L298.550194,79.2048688 L281.633194,69.4698688 Z M315.484194,49.9418688 L332.567194,40.0788688 L298.590194,20.4608688 L298.605194,40.1808688 L315.484194,49.9418688 Z M281.636194,49.9128688 L264.597194,40.0738688 L264.603194,79.3098688 L281.633194,69.4698688 L281.636194,49.9128688 Z M315.484194,69.4338688 L332.556194,79.3098688 L332.567194,40.0788688 L315.484194,49.9418688 L315.484194,69.4338688 Z M298.579194,138.163869 L298.577194,98.9288688 L264.600194,79.3108688 L230.622194,98.9288688 L298.579194,138.163869 Z M264.602194,79.3118688 L264.596194,40.0788688 L230.618194,59.6948688 L264.602194,79.3118688 Z M264.597194,40.0738688 L264.610194,0.842868836 L230.565194,20.4188688 L264.597194,40.0738688 Z M332.589194,40.0958688 L332.531194,0.826868836 L298.568194,20.4448688 L332.589194,40.0958688 Z M366.588194,59.7298688 L366.530194,20.4598688 L332.567194,40.0788688 L366.588194,59.7298688 Z M332.557194,118.545869 L332.553194,79.3128688 L298.577194,98.9288688 L332.557194,118.545869 Z M298.577194,98.9288688 L298.579194,138.163869 L332.557194,118.551869 L298.577194,98.9288688 Z M230.619194,20.4578688 L230.618194,59.6948688 L264.599194,40.0768688 L230.619194,20.4578688 Z M264.610194,0.842868836 L264.596194,40.0788688 L298.590194,20.4608688 L264.610194,0.842868836 Z M332.567194,40.0788688 L332.553194,79.3118688 L366.536194,59.6948688 L332.567194,40.0788688 Z M332.553194,0.843868836 L332.557194,40.0788688 L366.536194,20.4598688 L332.553194,0.843868836 Z M332.553194,79.3128688 L332.557194,118.545869 L366.536194,98.9288688 L332.553194,79.3128688 Z M298.603194,157.996869 L281.636194,167.724869 L298.589194,177.507869 L315.484194,167.753869 L298.603194,157.996869 Z M298.550194,197.016869 L298.577194,216.741869 L332.555194,197.123869 L315.484194,187.246869 L298.550194,197.016869 Z M281.633194,187.282869 L264.600194,197.122869 L298.577194,216.737869 L298.550194,197.016869 L281.633194,187.282869 Z M315.484194,187.246869 L332.556194,197.122869 L332.567194,157.890869 L315.484194,167.753869 L315.484194,187.246869 Z M264.602194,197.124869 L264.596194,157.890869 L230.618194,177.506869 L264.602194,197.124869 Z M264.597194,157.885869 L264.610194,118.655869 L230.565194,138.231869 L264.597194,157.885869 Z M17.5701937,172.826869 L17.5671937,192.384869 L34.4841937,202.118869 L34.5231937,182.609869 L17.5701937,172.826869 Z M0.606193664,182.580869 L0.567193664,202.089869 L17.5011937,192.319869 L17.5011937,172.826869 L0.606193664,182.580869 Z M68.5711937,222.549869 L68.5581937,202.826869 L34.5671937,222.441869 L51.6041937,232.277869 L68.5711937,222.549869 Z M17.4611937,232.306869 L34.5441937,222.443869 L0.567193664,202.826869 L0.582193664,222.546869 L17.4611937,232.306869 Z M51.6061937,192.665869 L34.5671937,182.826869 L34.5731937,222.063869 L51.6031937,212.223869 L51.6061937,192.665869 Z M68.5681937,202.826869 L68.5671937,242.062869 L102.548194,222.444869 L68.5681937,202.826869 Z M34.5811937,221.826869 L34.5671937,261.061869 L68.5611937,241.444869 L34.5811937,221.826869 Z M332.589194,157.908869 L332.531194,118.638869 L298.568194,138.256869 L332.589194,157.908869 Z M366.588194,177.541869 L366.530194,138.272869 L332.567194,157.890869 L366.588194,177.541869 Z M332.557194,236.358869 L332.553194,197.124869 L298.577194,216.741869 L332.557194,236.358869 Z M298.577194,216.741869 L298.579194,255.975869 L332.557194,236.364869 L298.577194,216.741869 Z M332.567194,157.890869 L332.553194,197.124869 L366.536194,177.505869 L332.567194,157.890869 Z M332.553194,118.656869 L332.557194,157.890869 L366.536194,138.272869 L332.553194,118.656869 Z M332.553194,197.124869 L332.557194,236.358869 L366.536194,216.741869 L332.553194,197.124869 Z" transform="rotate(-180 305.57 181.444)" stroke-linecap="round" opacity=".25" stroke-linejoin="round"/>
    <path stroke="#FFFFFF" stroke-width=".75" d="M374.97,117.735 L358.004,127.464 L374.956,137.248 L391.852,127.493 L374.97,117.735 Z M358.004,127.464 L358,147.021 L374.917,156.756 L374.956,137.248 L358.004,127.464 Z M374.956,137.248 L374.917,156.756 L391.852,146.985 L391.852,127.493 L374.956,137.248 Z M374.917,156.756 L374.945,176.48 L408.923,156.863 L391.852,146.985 L374.917,156.756 Z M374.97,117.735 L374.957,98.012 L340.967,117.628 L358.004,127.464 L374.97,117.735 Z M358,147.021 L340.968,156.861 L374.945,176.476 L374.917,156.756 L358,147.021 Z M391.852,127.493 L408.935,117.63 L374.957,98.012 L374.973,117.733 L391.852,127.493 Z M358.004,127.464 L340.965,117.626 L340.97,156.861 L358,147.021 L358.004,127.464 Z M391.852,146.985 L408.924,156.861 L408.935,117.63 L391.852,127.493 L391.852,146.985 Z M374.947,215.714 L374.945,176.48 L340.968,156.862 L306.99,176.48 L374.947,215.714 Z M340.97,156.864 L340.964,117.63 L306.986,137.246 L340.97,156.864 Z M340.965,117.626 L340.978,78.395 L306.933,97.971 L340.965,117.626 Z M374.936,97.996 L408.956,117.647 L374.936,97.996 Z M408.925,196.098 L408.921,156.864 L374.945,176.48 L408.925,196.098 Z M374.945,176.48 L374.947,215.714 L408.925,196.103 L374.945,176.48 Z M306.987,98.009 L306.986,137.246 L340.967,117.628 L306.987,98.009 Z M340.978,78.395 L340.964,117.63 L374.957,98.012 L340.978,78.395 Z M408.935,117.63 L408.921,156.863 L408.935,117.63 Z M408.921,156.864 L408.925,196.098 L442.904,176.48 L408.921,156.864 Z M391.852,245.305 L408.935,235.442 L374.957,215.825 L391.852,245.305 Z M306.933,215.784 L340.978,196.208 L306.933,215.784 Z M408.956,235.46 L408.899,196.19 L374.936,215.808 L408.956,235.46 Z M442.955,255.093 L442.898,215.824 L408.935,235.442 L442.955,255.093 Z M340.978,196.208 L374.957,215.825 L340.978,196.208 Z M408.921,196.208 L408.925,235.442 L442.904,215.824 L408.921,196.208 Z M510.967,215.911 L476.991,196.296 L510.967,215.911 Z M510.969,255.149 L510.967,215.915 L476.991,196.296 L443.012,215.915 L510.969,255.149 Z M476.992,196.298 L443.008,176.68 L476.992,196.298 Z M102.978,117.735 L119.859,127.493 L102.978,117.735 Z M102.924,156.756 L86.007,147.021 L102.924,156.756 Z M102.924,156.756 L102.951,176.48 L136.93,156.863 L119.859,146.985 L102.924,156.756 Z M102.964,98.012 L102.978,117.735 L102.964,98.012 Z M86.007,147.021 L68.975,156.861 L102.951,176.476 L102.924,156.756 L86.007,147.021 Z M119.859,127.493 L136.942,117.63 L102.964,98.012 L102.98,117.733 L119.859,127.493 Z M68.978,156.861 L86.007,147.021 L68.978,156.861 Z M119.859,146.985 L136.931,156.861 L136.942,117.63 L119.859,127.493 L119.859,146.985 Z M102.953,215.714 L102.951,176.48 L68.975,156.862 L34.996,176.48 L102.953,215.714 Z M136.963,117.647 L136.906,78.378 L102.943,97.996 L136.963,117.647 Z M170.962,137.282 L170.906,98.011 L136.942,117.63 L170.962,137.282 Z M136.932,196.098 L136.928,156.864 L102.951,176.48 L136.932,196.098 Z M102.951,176.48 L102.953,215.714 L136.932,196.103 L102.951,176.48 Z M136.942,117.63 L136.928,156.863 L170.91,137.246 L136.942,117.63 Z M136.928,78.395 L136.932,117.63 L170.91,98.012 L136.928,78.395 Z M136.928,156.864 L136.932,196.098 L170.91,176.48 L136.928,156.864 Z M34.953,74 L17.986,83.728 L34.939,93.512 L51.834,83.757 L34.953,74 Z M34.99,73.723 L34.976,54 L0.986,73.615 L18.023,83.451 L34.99,73.723 Z M51.881,83.48 L68.965,73.617 L34.986,54 L35.002,73.72 L51.881,83.48 Z M69.006,73.27 L68.949,34 L34.986,53.618 L69.006,73.27 Z M1.001,34 L0.986,73.234 L34.979,53.617 L1.001,34 Z M239,39.357 L222.033,49.086 L238.986,58.869 L255.881,49.115 L239,39.357 Z M222.033,49.086 L222.03,68.643 L238.947,78.378 L238.986,58.869 L222.033,49.086 Z M238.986,58.869 L238.947,78.378 L255.881,68.607 L255.881,49.115 L238.986,58.869 Z M238.947,78.378 L238.974,98.102 L272.952,78.484 L255.881,68.607 L238.947,78.378 Z M239,39.357 L238.987,19.634 L204.996,39.25 L222.033,49.086 L239,39.357 Z M222.03,68.643 L204.997,78.483 L238.974,98.098 L238.947,78.378 L222.03,68.643 Z M255.881,49.115 L272.964,39.252 L238.987,19.634 L239.002,39.354 L255.881,49.115 Z M222.033,49.086 L204.994,39.247 L205,78.483 L222.03,68.643 L222.033,49.086 Z M255.881,68.607 L272.953,78.483 L272.964,39.252 L255.881,49.115 L255.881,68.607 Z M238.976,137.337 L238.974,98.102 L204.997,78.484 L171.019,98.102 L238.976,137.337 Z M204.999,78.485 L204.993,39.252 L171.015,58.868 L204.999,78.485 Z M204.994,39.247 L205.007,0.016 L170.962,19.592 L204.994,39.247 Z M272.986,39.269 L272.928,0 L238.965,19.618 L272.986,39.269 Z M306.985,58.903 L306.927,19.633 L272.964,39.252 L306.985,58.903 Z M272.954,117.719 L272.95,78.486 L238.974,98.102 L272.954,117.719 Z M238.974,98.102 L238.976,137.337 L272.954,117.725 L238.974,98.102 Z M171.016,19.631 L171.015,58.868 L204.996,39.25 L171.016,19.631 Z M205.007,0.016 L204.993,39.252 L238.987,19.634 L205.007,0.016 Z M272.964,39.252 L272.95,78.485 L306.933,58.868 L272.964,39.252 Z M272.95,0.017 L272.954,39.252 L306.933,19.633 L272.95,0.017 Z M272.95,78.486 L272.954,117.719 L306.933,98.102 L272.95,78.486 Z M239,157.17 L222.033,166.898 L238.986,176.681 L255.881,166.927 L239,157.17 Z M222.033,166.898 L222.03,186.456 L238.947,196.19 L238.986,176.681 L222.033,166.898 Z M238.986,176.681 L238.947,196.19 L255.881,186.42 L255.881,166.927 L238.986,176.681 Z M238.947,196.19 L238.974,215.915 L272.952,196.297 L255.881,186.42 L238.947,196.19 Z M239,157.17 L238.987,137.447 L204.996,157.062 L222.033,166.898 L239,157.17 Z M222.03,186.456 L204.997,196.296 L238.974,215.911 L238.947,196.19 L222.03,186.456 Z M255.881,166.927 L272.964,157.064 L238.987,137.447 L239.002,157.167 L255.881,166.927 Z M222.033,166.898 L204.994,157.059 L205,196.296 L222.03,186.456 L222.033,166.898 Z M255.881,186.42 L272.953,196.296 L272.964,157.064 L255.881,166.927 L255.881,186.42 Z M204.999,196.298 L204.993,157.064 L171.015,176.68 L204.999,196.298 Z M204.994,157.059 L205.007,117.829 L170.962,137.405 L204.994,157.059 Z M272.986,157.082 L272.928,117.812 L238.965,137.43 L272.986,157.082 Z M306.985,176.715 L306.927,137.446 L272.964,157.064 L306.985,176.715 Z M272.954,235.532 L272.95,196.298 L238.974,215.915 L272.954,235.532 Z M238.974,215.915 L238.976,255.149 L272.954,235.538 L238.974,215.915 Z M171.016,137.444 L171.015,176.68 L204.996,157.062 L171.016,137.444 Z M205.007,117.829 L204.993,157.064 L238.987,137.447 L205.007,117.829 Z M272.964,157.064 L272.95,196.298 L306.933,176.679 L272.964,157.064 Z M272.95,117.83 L272.954,157.064 L306.933,137.446 L272.95,117.83 Z M272.95,196.298 L272.954,235.532 L306.933,215.915 L272.95,196.298 Z" transform="translate(1050 84)" stroke-linecap="round" opacity=".3" stroke-linejoin="round"/>
    <g stroke="#FFFFFF" stroke-width=".75" transform="translate(54 277)" opacity=".2">
      <polygon points="51.003 49 51 68.557 67.917 78.292 67.956 58.783"/>
      <polygon points="68.039 58.754 68 78.263 84.934 68.492 84.934 49"/>
      <polygon points="68 78.771 68.027 98.495 102.005 78.877 84.934 69"/>
      <polygon points="68.004 39.723 67.991 20 34 39.616 51.037 49.452"/>
      <polygon points="51.033 69 34 78.84 67.977 98.455 67.95 78.735"/>
      <polygon points="84.894 49.481 101.977 39.618 68 20 68.015 39.72"/>
      <polygon points="51.039 49.839 34 40 34.006 79.236 51.036 69.396"/>
      <polygon points="33.984 79.233 33.978 40 0 59.616"/>
      <polygon points="102.021 39.269 101.963 0 68 19.618"/>
      <polygon points="102.014 40 102 79.233 135.983 59.616"/>
      <polygon points="102 0 102.004 39.235 135.983 19.616"/>
    </g>
    <g stroke="#FFFFFF" stroke-width=".75" transform="translate(1419 47)" opacity=".3">
      <polygon points="51.004 49 51 68.557 67.917 78.292 67.956 58.784"/>
      <polygon points="68.039 58.755 68 78.263 84.935 68.492 84.935 49"/>
      <polygon points="68.003 38.723 67.99 19 34 38.616 51.037 48.452"/>
      <polygon points="84.895 48.481 101.978 38.618 68 19 68.016 38.721"/>
      <polygon points="51.039 48.838 34 39 34.005 78.235 51.035 68.395"/>
      <polygon points="85 68.355 102.072 78.231 102.083 39 85 48.863"/>
      <polygon points="67.957 136.852 67.955 97.618 33.978 78 0 97.618"/>
      <path d="M68,19 L102.02,38.651 L68,19 Z"/>
      <polygon points="101.98 117.234 101.976 78 68 97.616"/>
      <polygon points="34.014 0 34 39.235 67.993 19.617"/>
      <polygon points="102 78 102.004 117.234 135.983 97.616"/>
    </g>
  </g>
</svg>
