<svg height="512pt" viewBox="-34 0 512 512" width="512pt" xmlns="http://www.w3.org/2000/svg"><g fill-rule="evenodd"><path d="m135.074219 120h294c8.285156 0 15 6.714844 15 15v362c0 8.285156-6.714844 15-15 15h-294c-8.285157 0-15-6.714844-15-15v-362c0-8.285156 6.714843-15 15-15zm0 0" fill="#69b1e9"/><path d="m75 60h294c8.285156 0 15 6.714844 15 15v362c0 8.285156-6.714844 15-15 15h-294c-8.285156 0-15-6.714844-15-15v-362c0-8.285156 6.714844-15 15-15zm0 0" fill="#96c8ef"/><path d="m15 0h208c4.1875 0 7.976562 1.71875 10.699219 4.488281l85.90625 85.90625c2.929687 2.929688 4.390625 6.765625 4.390625 10.605469l.003906 276c0 8.28125-6.714844 15-15 15h-294c-8.285156 0-15-6.71875-15-15v-362c0-8.285156 6.714844-15 15-15zm0 0" fill="#dff3ff"/><path d="m162.035156 0h60.964844c4.191406 0 7.976562 1.71875 10.699219 4.488281l85.90625 85.90625c2.929687 2.929688 4.394531 6.765625 4.394531 10.605469v276c0 8.28125-6.714844 15-15 15h-146.964844zm0 0" fill="#c5e7fd"/><g fill="#0095ff"><path d="m75 90c-8.285156 0-15-6.714844-15-15 0-8.28125 6.714844-15 15-15h60.042969c8.285156 0 15 6.71875 15 15 0 8.285156-6.714844 15-15 15zm0 0"/><path d="m75 150c-8.285156 0-15-6.714844-15-15 0-8.28125 6.714844-15 15-15h59.90625c8.285156 0 15 6.71875 15 15 0 8.285156-6.714844 15-15 15zm0 0"/><path d="m75 210c-8.285156 0-15-6.714844-15-15 0-8.28125 6.714844-15 15-15h158.5c8.285156 0 15 6.71875 15 15 0 8.285156-6.714844 15-15 15zm0 0"/><path d="m75 270c-8.285156 0-15-6.714844-15-15 0-8.28125 6.714844-15 15-15h158.5c8.285156 0 15 6.71875 15 15 0 8.285156-6.714844 15-15 15zm0 0"/><path d="m75 330c-8.285156 0-15-6.714844-15-15 0-8.28125 6.714844-15 15-15h158.5c8.285156 0 15 6.71875 15 15 0 8.285156-6.714844 15-15 15zm0 0"/></g><path d="m233.605469 4.394531 86.40625 85.40625c2.769531 2.722657 4.488281 6.507813 4.488281 10.699219 0 8.28125-7.214844 15.5-15.5 15.5h-86c-8.285156 0-15-6.71875-15-15v-86c.003906-3.839844 1.464844-7.675781 4.394531-10.605469 5.859375-5.859375 15.355469-5.859375 21.210938 0zm0 0" fill="#69b1e9"/><path d="m162.035156 180h71.464844c8.285156 0 15 6.71875 15 15 0 8.285156-6.714844 15-15 15h-71.464844zm0 0" fill="#0082ff"/><path d="m162.035156 240h71.464844c8.285156 0 15 6.714844 15 15s-6.714844 15-15 15h-71.464844zm0 0" fill="#0082ff"/><path d="m162.035156 300h71.464844c8.285156 0 15 6.714844 15 15s-6.714844 15-15 15h-71.464844zm0 0" fill="#0082ff"/></g></svg>