<svg height="464pt" viewBox="-36 0 464 464" width="464pt" xmlns="http://www.w3.org/2000/svg"><path d="m328 0h-256v416h320v-352zm0 0" fill="#4398d1"/><path d="m328 64v-64l64 64zm0 0" fill="#87ced9"/><g fill="#5eb3d1"><path d="m296 296h56v16h-56zm0 0"/><path d="m192 248h160v16h-160zm0 0"/><path d="m112 152h80v16h-80zm0 0"/><path d="m208 152h144v16h-144zm0 0"/><path d="m272 200h80v16h-80zm0 0"/><path d="m168 200h88v16h-88zm0 0"/><path d="m112 104h144v16h-144zm0 0"/><path d="m272 104h80v16h-80zm0 0"/><path d="m264 344h88v16h-88zm0 0"/><path d="m112 56h48v16h-48zm0 0"/><path d="m176 56h32v16h-32zm0 0"/></g><path d="m344 64h48v16h-48zm0 0" fill="#368ec9"/><path d="m296 305.785156-93.976562-13.511718-42.023438-84.273438-42.023438 84.273438-37.976562 5.453124v62.074219l12 11.574219-7.734375 44.625h151.46875l-7.734375-44.625zm0 0" fill="#368ec9"/><path d="m272 305.785156-93.976562-13.511718-42.023438-84.273438-42.023438 84.273438-93.976562 13.511718 68 65.589844-16.054688 92.625 84.054688-43.726562 84.054688 43.726562-16.054688-92.625zm0 0" fill="#ffc14d"/><path d="m272 305.785156-61.289062-8.800781c-43.199219 58.335937-104.863282 96.457031-150.359376 118.535156l-8.40625 48.480469 84.054688-43.726562 84.054688 43.726562-16.054688-92.625zm0 0" fill="#ffb730"/><path d="m88 328h16v16h-16zm0 0" fill="#fd882f"/><path d="m168 328h16v16h-16zm0 0" fill="#fd882f"/><path d="m144 360c0 4.417969-3.582031 8-8 8s-8-3.582031-8-8v-8h-16v8c0 13.253906 10.746094 24 24 24s24-10.746094 24-24v-8h-16zm0 0" fill="#fd882f"/></svg>