<?xml version="1.0" encoding="iso-8859-1"?>
<!-- Generator: Adobe Illustrator 19.0.0, SVG Export Plug-In . SVG Version: 6.00 Build 0)  -->
<svg version="1.1" id="Capa_1" xmlns="http://www.w3.org/2000/svg" xmlns:xlink="http://www.w3.org/1999/xlink" x="0px" y="0px"
	 viewBox="0 0 512 512" style="enable-background:new 0 0 512 512;" xml:space="preserve">
<polygon style="fill:#C5C9F7;" points="451,466.5 316,466.5 316,436.5 421,436.5 421,385.5 451,385.5 "/>
<path style="fill:#2484da;" d="M331,496.5h-75c-24.813,0-45-20.187-45-45s20.187-45,45-45h75V496.5z"/>
<path style="fill:#2484da;" d="M256,436.5c-8.271,0-15,6.729-15,15s6.729,15,15,15h45v-30H256z"/>
<path style="fill:#E1E4FB;" d="M451,210.5h-30c0-90.981-74.019-165-165-165s-165,74.019-165,165H61c0-107.523,87.477-195,195-195
	S451,102.977,451,210.5z"/>
<path style="fill:#C5C9F7;" d="M256,15.5v30c90.981,0,165,74.019,165,165h30C451,102.977,363.523,15.5,256,15.5z"/>
<path style="fill:#479be6;" d="M120,406.5h-15c-57.897,0-105-47.103-105-105s47.103-105,105-105h15V406.5z"/>
<path style="fill:#479be6;" d="M407,406.5h-15v-210h15c57.897,0,105,47.103,105,105S464.897,406.5,407,406.5z"/>
<g>
</g>
<g>
</g>
<g>
</g>
<g>
</g>
<g>
</g>
<g>
</g>
<g>
</g>
<g>
</g>
<g>
</g>
<g>
</g>
<g>
</g>
<g>
</g>
<g>
</g>
<g>
</g>
<g>
</g>
</svg>
