<svg width="1516" height="1532" viewBox="0 0 1516 1532" xmlns="http://www.w3.org/2000/svg"><title>polygon-green-9</title><defs><linearGradient x1="96.894%" y1="25.51%" x2="16.08%" y2="77.985%" id="a"><stop stop-color="#3BC4A1" offset="0%"/><stop stop-color="#42E3BA" offset="100%"/></linearGradient></defs><path d="M752.228 3639.485l373.828-289.544a100 100 0 0 1 64.636-20.883l455.48 15.507a100 100 0 0 1 65.33 27.307l326.64 309.09a100 100 0 0 1 30.751 62.49l47.164 462.499a100 100 0 0 1-15.617 64.609l-259.225 399.172a100 100 0 0 1-52.672 40.545l-441.697 145.03a100 100 0 0 1-69.595-2.677l-415.224-172.682a100 100 0 0 1-51.518-48.575l-199.427-409.794a100 100 0 0 1-7.212-67.542l112.462-459.277a100 100 0 0 1 35.896-55.275z" transform="translate(-601 -3329)" fill="#2484da" fill-rule="evenodd" opacity=".1"/></svg>