<?xml version="1.0" encoding="UTF-8"?> <svg xmlns="http://www.w3.org/2000/svg" xmlns:xlink="http://www.w3.org/1999/xlink" width="1920px" height="333px" viewBox="0 0 1920 333"><!-- Generator: Sketch 48.1 (47250) - http://www.bohemiancoding.com/sketch --><title>Group 3 Copy</title><desc>Created with Sketch.</desc><defs><linearGradient x1="3.95957856%" y1="73.5108364%" x2="93.1532551%" y2="32.4986071%" id="linearGradient-1"><stop stop-color="#5717FF" offset="0%"></stop><stop stop-color="#FF8B5C" offset="52.867905%"></stop><stop stop-color="#BC70C7" offset="76.961044%"></stop><stop stop-color="#067DFF" offset="100%"></stop></linearGradient><linearGradient x1="3.88606056%" y1="73.5446408%" x2="91.9561885%" y2="33.0490314%" id="linearGradient-2"><stop stop-color="#1A1EFF" offset="0%"></stop><stop stop-color="#19AFEA" offset="52.3159615%"></stop><stop stop-color="#2C19FF" stop-opacity="0.72302423" offset="100%"></stop></linearGradient></defs><g id="Hero" stroke="none" stroke-width="1" fill="none" fill-rule="evenodd" transform="translate(0.000000, -1022.000000)"><g id="TWO" transform="translate(-11.000000, 760.000000)"><g id="Group-3-Copy" transform="translate(0.000000, 262.000000)"><path d="M11,241.907827 C159.185127,116.340803 328.561883,109.21134 519.130269,220.519437 C804.982848,387.481581 1187.61209,316.833335 1340.04024,231.283885 C1456.82862,165.737056 1580.54775,7.06755257 1744.32215,0.882526445 C1804.95803,-1.40741966 1874.90285,-3.44956545 1933.99973,52.5893499 C1934.02057,142.056309 1932.82242,233.859859 1930.40528,328 L11,328 L11,241.907827 Z" id="Path-5" fill="#06BBF1" opacity="0.7"></path><path d="M0,139.025914 C148.187388,13.2304107 317.566728,6.08797461 508.138022,117.598606 C793.994962,284.864552 832.620265,364.747746 1327.0601,191.57756 C1504.3288,129.491835 1579.54254,212.593092 1743.31944,206.396811 C1803.95625,204.102698 1873.90214,202.056837 1932.99992,258.19772 C1933.02076,347.827472 1929.07951,371.10295 1921.17617,328.024155 L1.74160648,328.024155 L0,139.025914 Z" id="Path-5-Copy" fill="url(#linearGradient-1)" opacity="0.7" transform="translate(966.500000, 194.000000) scale(-1, 1) translate(-966.500000, -194.000000) "></path><path d="M0,139.115261 C258.434632,285.151556 461.802921,311.331477 610.104868,217.655025 C832.557787,77.1403477 720.690609,464.059849 1327.06015,191.635347 C1467.61416,128.488451 1556.58706,104.033059 1639.71188,123.562437 C1820.44518,166.023989 1873.90222,202.108331 1933,258.215498 C1932.63279,304.738499 1932.63279,328 1933,328 L1.74160656,328 L0,139.115261 Z" id="Path-5-Copy-2" fill="url(#linearGradient-2)" opacity="0.8"></path></g></g></g></svg> 