<?xml version="1.0" encoding="utf-8"?>
<!-- Generator: Adobe Illustrator 16.0.0, SVG Export Plug-In . SVG Version: 6.00 Build 0)  -->
<!DOCTYPE svg PUBLIC "-//W3C//DTD SVG 1.1//EN" "http://www.w3.org/Graphics/SVG/1.1/DTD/svg11.dtd">
<svg version="1.1" id="Layer_1" xmlns="http://www.w3.org/2000/svg" xmlns:xlink="http://www.w3.org/1999/xlink" x="0px" y="0px"
	 viewBox="0 0 681 549.377" enable-background="new 0 0 681 549.377" xml:space="preserve">
<g>
	<defs>
		<path id="XMLID_1_" d="M65.999,1L23.122,48.81c0,0-5.225,7.013-10.101,15.802C9.139,71.608,5.478,79.73,4.849,86.337
			c-0.708,7.453-0.501,16.259,1.713,25.909c2.215,9.65,6.439,20.145,13.764,30.972c29.299,43.312,164.361,224.715,233.788,313.25
			c0,0,42.69,46.435,61.162,63.632s40.136,29.906,82.174,29.269c0,0,60.649-4.475,117.975-26.131c0,0,164.575-58.613,164.575-63.072
			S680,1,680,1H65.999z"/>
	</defs>
	<use xlink:href="#XMLID_1_"  overflow="visible" fill="#BDCCD4"/>
	<clipPath id="XMLID_3_">
		<use xlink:href="#XMLID_1_"  overflow="visible"/>
	</clipPath>
	<g transform="matrix(1 0 0 1 -4.855101e-006 4.794904e-008)" clip-path="url(#XMLID_3_)">
		
			<image overflow="visible" id="svg_changing_id" width="1600" height="686" xlink:href="../big/j1.jpg"  transform="matrix(0.8181 0 0 0.8181 -578.0005 -5.6787)">
		</image>
	</g>
</g>
<path fill="#BDCCD4" d="M30.667,33"/>
</svg>
