<svg width="536" height="498" xmlns="http://www.w3.org/2000/svg"><defs><linearGradient x1="87.998%" y1="83.683%" x2="0%" y2="-12.678%" id="a"><stop stop-color="#14BADC" offset="0%"/><stop stop-color="#6D4DD9" offset="100%"/></linearGradient></defs><path d="M852.128 59c21.21 0 38.632 5.547 52.266 16.642 13.635 11.095 20.453 22.693 20.453 34.797 0 2.017-13.383 20.676-40.147 55.977-26.765 35.301-40.147 63.542-40.147 84.723 0 21.18 6.565 36.814 19.695 46.9 13.13 10.086 27.27 17.902 42.419 23.45 15.15 5.547 29.29 16.39 42.419 32.527 13.13 16.138 19.695 38.075 19.695 65.811 0 27.737-11.363 52.7-34.087 74.89C911.969 516.904 882.428 528 846.068 528c-36.36 0-67.163-13.868-92.413-41.605-25.25-27.737-37.874-66.063-37.874-114.98 0-48.918 10.352-99.348 31.057-151.29 20.704-51.944 41.661-91.783 62.87-119.52C830.919 72.868 845.059 59 852.129 59zM591.446 88.257c21.158 1.48 38.15 8.23 50.978 20.25 12.828 12.019 18.82 24.065 17.977 36.14-.141 2.012-14.791 19.691-43.95 53.038-29.16 33.348-44.479 60.585-45.955 81.715-1.477 21.129 3.982 37.182 16.377 48.16 12.394 10.978 25.954 19.763 40.68 26.354 14.726 6.591 28.076 18.394 40.048 35.41 11.973 17.014 16.992 39.356 15.059 67.025-1.934 27.67-15.008 51.778-39.224 72.327-24.216 20.55-54.458 29.555-90.729 27.017-36.27-2.537-66.032-18.522-89.287-47.954-23.254-29.431-33.176-68.546-29.766-117.344 3.41-48.799 17.252-98.383 41.527-148.755 24.275-50.372 47.958-88.651 71.05-114.84 23.09-26.189 38.162-39.036 45.215-38.543z" transform="translate(-433 -59)" fill="url(#a)" fill-rule="evenodd"/></svg>