<?xml version="1.0" encoding="utf-8"?>
<!-- Generator: Adobe Illustrator 22.1.0, SVG Export Plug-In . SVG Version: 6.00 Build 0)  -->
<svg version="1.1" id="eb784e0d-05db-44e6-8395-40b319063039"
	 xmlns="http://www.w3.org/2000/svg" xmlns:xlink="http://www.w3.org/1999/xlink" x="0px" y="0px" viewBox="0 0 1094 798.2"
	 style="enable-background:new 0 0 1094 798.2;" xml:space="preserve">
<style type="text/css">
	.st0{fill:#ccf2ed;}
	.st1{fill:url(#SVGID_1_);}
	.st2{fill:#F6F7F9;}
	.st3{fill:#DDE1EC;}
	.st4{opacity:0.1;}
	.st5{fill:#2488e4;}
	.st6{fill:#E8EAF1;}
	.st7{fill:#FF5252;}
	.st8{fill:#FFFF00;}
	.st9{fill:#69F0AE;}
	.st10{fill:#FFFFFF;}
	.st11{fill:url(#SVGID_2_);}
	.st12{fill:url(#SVGID_3_);}
	.st13{fill:#E0A17E;}
	.st14{fill:#F0F1F5;}
	.st15{opacity:0.1;enable-background:new    ;}
	.st16{fill:#293158;}
	.st17{opacity:2.000000e-02;enable-background:new    ;}
	.st18{fill:#463E3B;}
	.st19{fill:#CD9494;}
	.st20{opacity:5.000000e-02;enable-background:new    ;}
	.st21{fill:#FF7361;}
	.st22{fill:none;stroke:#535461;stroke-miterlimit:10;}
	.st23{fill:url(#SVGID_4_);}
	.st24{fill:#FEBDD5;}
	.st25{opacity:0.1;fill:#FFFFFF;enable-background:new    ;}
	.st26{fill:#EFC8C4;}
	.st27{fill:#727A9C;}
	.st28{fill:#FFB9B9;}
	.st29{fill:#CBCDDA;}
	.st30{fill:#4C4C78;}
	.st31{fill:#B96B6B;}
</style>
<title>wall post</title>
<g>
	<path class="st0" d="M66.4,119.4c10.2,17.7,4.6,40.8-6.5,58c-11.1,17.2-26.8,30.9-39.1,47.3c-24.4,32.8-30.7,84.5,0.1,111.4
		c6.6,5.8,14.8,10.4,18.9,18.2c5.6,10.8,1.4,23.8-2.8,35.2l-0.3,0.9c-15.9,43.1,7.5,90.9,51.5,104.5c24.3,7.5,46.2,19.6,62.5,39.3
		c14.2,17.2,22.4,38.3,31.8,58.5c16.9,36.5,38.8,71.4,68.9,98s69.6,44.2,109.8,42.7c91.8-3.3,159.4-100,251.2-105.1
		c6.6-0.4,13.7-0.1,19.2,3.5c7.8,5.1,10.2,15.2,13.5,24c17.4,46.4,69.7,67.8,116.5,84.1l88,30.6c47.8,16.6,98,33.5,148,25.8
		c50-7.7,98.8-48.8,96.7-99.3c-1.8-41.5-36.2-78.1-31.7-119.4c3.1-28.6,24.5-52.5,28.1-81.1c3.7-29.7-12.5-58.2-31.2-81.5
		c-53.7-67.2-130.3-111.6-205-154.3c-52.6-30.1-105.5-60.4-162.2-82c-139.7-53.2-293.2-50.9-442-65.4c-25.6-2.5-52.3-5.4-75.8-16.8
		c-18-8.7-32.1-28.8-51.8-33c-15.1-3.2-37.3,3.4-50.4,10.8C47.9,87.6,54.5,98.8,66.4,119.4z"/>
</g>
<linearGradient id="SVGID_1_" gradientUnits="userSpaceOnUse" x1="639.025" y1="127.5699" x2="639.025" y2="749.07" gradientTransform="matrix(1 0 0 -1 -53 749.07)">
	<stop  offset="0" style="stop-color:#808080;stop-opacity:0.25"/>
	<stop  offset="0.54" style="stop-color:#808080;stop-opacity:0.12"/>
	<stop  offset="1" style="stop-color:#808080;stop-opacity:0.1"/>
</linearGradient>
<path class="st1" d="M987.9,0H184.2c-15.5,0.1-27.9,12.7-27.9,28.1c0,0,0,0,0,0v565.2c-0.1,15.5,12.4,28.1,27.8,28.1c0,0,0,0,0,0
	h803.7c15.5-0.1,27.9-12.7,27.9-28.1c0,0,0,0,0,0V28.2C1015.8,12.7,1003.4,0.1,987.9,0C987.9,0,987.9,0,987.9,0z"/>
<path class="st2" d="M1012.1,59.9v526.7c0,15.3-12.4,27.6-27.6,27.6l0,0H187.9c-15.3,0-27.6-12.4-27.6-27.6l0,0V59.9H1012.1z"/>
<path class="st3" d="M368.3,331.4v282.9H187.9c-15.3,0-27.6-12.6-27.6-28.2V331.4H368.3z"/>
<rect x="430.1" y="124.4" class="st3" width="346.8" height="9.7"/>
<rect x="430.1" y="193.7" class="st3" width="209.2" height="9.8"/>
<rect x="685.9" y="193.7" class="st3" width="70.5" height="9.8"/>
<g class="st4">
	<rect x="224.2" y="437" class="st5" width="70.5" height="9.8"/>
</g>
<rect x="685.9" y="284.8" class="st3" width="70.5" height="9.8"/>
<rect x="685.9" y="375.8" class="st3" width="70.5" height="9.8"/>
<rect x="685.9" y="224.1" class="st3" width="70.5" height="9.8"/>
<rect x="807.3" y="224.1" class="st3" width="70.5" height="9.8"/>
<rect x="685.9" y="254.4" class="st3" width="70.5" height="9.7"/>
<rect x="807.3" y="254.4" class="st3" width="70.5" height="9.7"/>
<rect x="807.3" y="310.8" class="st3" width="70.5" height="9.8"/>
<rect x="807.3" y="341.1" class="st3" width="70.5" height="9.8"/>
<rect x="807.3" y="406.2" class="st3" width="70.5" height="9.8"/>
<rect x="430.1" y="224.1" class="st3" width="209.2" height="9.8"/>
<rect x="430.1" y="254.4" class="st3" width="209.2" height="9.7"/>
<rect x="430.1" y="284.8" class="st3" width="209.2" height="9.8"/>
<rect x="430.1" y="315.1" class="st3" width="209.2" height="9.8"/>
<rect x="430.1" y="345.5" class="st3" width="209.2" height="9.8"/>
<rect x="430.1" y="375.8" class="st3" width="209.2" height="9.8"/>
<rect x="430.1" y="406.2" class="st3" width="209.2" height="9.8"/>
<rect x="160.2" y="59.3" class="st5" width="208.1" height="277.5"/>
<path class="st6" d="M1012.1,31.7c0-15.3-12.4-27.6-27.6-27.6H187.9c-15.3,0-27.6,12.4-27.6,27.6l0,0v31.4h851.9V31.7z"/>
<circle class="st7" cx="193.9" cy="33.3" r="10.8"/>
<circle class="st8" cx="229.6" cy="33.3" r="10.8"/>
<circle class="st9" cx="265.4" cy="33.3" r="10.8"/>
<path class="st10" d="M325,198.1c0,13.9-4.8,27.4-13.5,38.2c-0.3,0.4-0.7,0.8-1,1.2l0,0c-0.1,0.1-0.1,0.1-0.2,0.2
	c-3.1,3.6-6.6,6.8-10.5,9.6l-0.5,0.4c-0.7,0.5-1.4,1-2.1,1.4l-0.5,0.3l-1,0.6c-0.2,0.1-0.3,0.2-0.5,0.3c-0.1,0.1-0.3,0.2-0.4,0.2
	c-1.5,0.9-3.1,1.7-4.8,2.5c-0.2,0.1-0.4,0.2-0.6,0.3s-0.4,0.2-0.6,0.3s-0.6,0.3-1,0.4c-3.5,1.5-7.1,2.6-10.8,3.4
	c-3.5,0.8-7.1,1.2-10.8,1.3h-0.5h-1.4c-4.8,0-9.5-0.5-14.2-1.6l-0.9-0.2c-2-0.5-4-1.2-6-1.9c-1.2-0.4-2.4-0.9-3.5-1.4
	c-0.3-0.1-0.6-0.2-0.9-0.4l-0.9-0.4l-0.8-0.4l0,0l-0.8-0.4l-0.9-0.5l-1-0.6l-0.2-0.1c-4.3-2.4-8.2-5.3-11.8-8.7
	c-0.3-0.3-0.6-0.6-0.9-0.9s-0.6-0.6-0.9-0.9c-23.4-24-22.8-62.5,1.3-85.8c24-23.4,62.5-22.8,85.8,1.3
	C318.9,167.1,325,182.3,325,198.1z"/>
<linearGradient id="SVGID_2_" gradientUnits="userSpaceOnUse" x1="319.04" y1="490.3099" x2="319.04" y2="587.8177" gradientTransform="matrix(1 0 0 -1 -53 749.07)">
	<stop  offset="0" style="stop-color:#808080;stop-opacity:0.25"/>
	<stop  offset="0.54" style="stop-color:#808080;stop-opacity:0.12"/>
	<stop  offset="1" style="stop-color:#808080;stop-opacity:0.1"/>
</linearGradient>
<path class="st11" d="M307,219.7c-0.1,0.9-0.3,1.8-0.6,2.7c0,0.1-0.1,0.3-0.1,0.4c0-0.4-0.1-0.8-0.1-1.2l0,0
	c-0.3-4.5-0.6-11.5,0.3-15.6c0.9-3.9-5.3-2.7-9.5,0.8l0,0c-1.2,1-2.2,2.2-2.9,3.6c-0.1-0.1-0.2-0.2-0.3-0.4c-2-2.5-5-4-8.2-4
	c-6.5-0.4-12.7-3.1-17.4-7.6c-0.2-0.8-0.4-1.6-0.5-2.4c0-0.2-0.1-0.5-0.1-0.8c2.3-2.1,3.9-4.8,4.6-7.8c0,0,0-0.1,0-0.1
	c0.2-1.1,0.4-2.2,0.4-3.3c0-0.5,0-0.9,0-1.3c0-0.2,0-0.3,0-0.5s0-0.4-0.1-0.6c0.3-0.1,0.5-0.2,0.7-0.4c1.4-0.9,2.5-2.2,3.2-3.7v-0.1
	c0.2-0.5,0.5-1.1,0.6-1.7l0,0c0.5-1.6,0.8-3.3,0.8-5c0-0.2,0-0.4,0-0.6c0-1.3-0.3-3-1.5-3.2c-1.7-0.4-2.9,2.2-4.6,1.9
	c-0.5-0.1-1-0.4-1.3-0.8c-1.2-1.1-1.9-2.6-3.1-3.8c-1.8-1.7-4.2-2.7-6.6-2.8c-2.4-0.1-4.9,0.1-7.3,0.7c-1.3,0.2-2.6,0.7-3.8,1.3
	c-1.2,0.6-2,1.8-2.2,3.1c0,0.3,0,0.6,0,0.9c0,0.4,0,0.9,0,1.3c0,0.2,0,0.4-0.1,0.5c-0.4,1.2-1.2,2.2-2.3,2.8
	c-1.1,0.6-2.2,1.1-3.2,1.8c-1.6,1.2-2.7,3-3.1,5c-0.3,1.1-0.4,2.2-0.4,3.4c0,1,0,2.1,0.2,3.1c0.4,3.4,1.4,6.8,2.9,9.9
	c0.4,0.9,0.9,1.7,1.4,2.5l0,0c0.1,0.2,0.3,0.4,0.4,0.5c0.9,1.1,2,2,3.2,2.7l0.7,0.5c0.5,0.4,1.1,0.6,1.7,0.4
	c0.2-0.1,0.4-0.2,0.5-0.3c0.9-0.8,1.3-2,1.2-3.1V198c0,0.1,0,0.1,0,0.2c0,0.1,0,0.2,0,0.2h0.1c0,0.5,0,1,0,1.5c0,0.2,0,0.4,0,0.6
	c0,0.1,0,0.2,0,0.4l-0.2,0.1l0,0c-0.3,0.3-0.9,0.8-1.8,1.4l0,0c-3.5,2.7-7.2,4.9-11.2,6.7c-4.5,1.8-7.8,5.6-9.2,10.2
	c-1,3.4-2.5,6.5-4.4,9.5c-0.5,0.7-1.8,6-3.3,11.4c0.3,0.3,0.6,0.6,0.9,0.9s0.6,0.6,0.9,0.9c3.6,3.4,7.5,6.3,11.8,8.7l0.2,0.1l1,0.6
	l0.9,0.5c0-0.8-0.1-1.4-0.1-2.1c0-0.4-0.1-0.8-0.1-1.1c0.2-0.4,0.4-0.7,0.6-1c0,0.3,0.1,0.6,0.1,1l0,0c0.1,1,0.2,2.2,0.3,3.6
	c0,0.4,0,0.9,0.1,1.4c0-0.5,0-1-0.1-1.4l0.8,0.4l0.9,0.4c0.3,0.1,0.6,0.3,0.9,0.4c1.1,0.5,2.3,1,3.5,1.4c1.9,0.7,3.9,1.3,6,1.9
	l0.9,0.2c4.6,1.1,9.4,1.7,14.2,1.7h1.4h0.5c3.6-0.1,7.3-0.6,10.8-1.4c3.7-0.8,7.3-1.9,10.8-3.4c0.3-0.1,0.7-0.3,1-0.4
	c0.2-0.1,0.4-0.2,0.6-0.3s0.4-0.2,0.6-0.3c-1-3.5-1.5-5.8-1.5-5.8l1.3-3.4l0.2-0.4l0.4-1l0,0c0,0.1,0.1,0.3,0.1,0.4l0,0
	c0.8,2.9,2.5,5.5,4.7,7.5c0.2-0.1,0.3-0.2,0.5-0.3l1-0.6l0.5-0.3c0.7-0.5,1.4-0.9,2.1-1.4l0.5-0.4c3.9-2.8,7.4-6,10.5-9.6l0.2-0.2
	l0,0c0.3-0.4,0.7-0.8,1-1.2L307,219.7z M298.3,224.2c0,0,0.1,0.1,0.1,0.1L298.3,224.2L298.3,224.2z"/>
<linearGradient id="SVGID_3_" gradientUnits="userSpaceOnUse" x1="-171.47" y1="495.27" x2="-171.47" y2="553.86" gradientTransform="matrix(-1 0 0 -1 95 749.07)">
	<stop  offset="0" style="stop-color:#808080;stop-opacity:0.25"/>
	<stop  offset="0.54" style="stop-color:#808080;stop-opacity:0.12"/>
	<stop  offset="1" style="stop-color:#808080;stop-opacity:0.1"/>
</linearGradient>
<path class="st12" d="M298.4,222.4L298.4,222.4l0.1,0.1C298.5,222.5,298.5,222.4,298.4,222.4z M237.3,252.4
	c-0.1-1.4-0.2-2.7-0.3-3.7c-0.1-0.8-0.1-1.4-0.2-2c0,0,0-0.1,0-0.1c0-0.1,0-0.3,0-0.4c-1,1.5-1.8,3-2.4,4.7l0.2,0.1l1,0.6l0.9,0.5
	L237.3,252.4c0,0.5,0,0.9,0.1,1.4C237.3,253.3,237.3,252.9,237.3,252.4L237.3,252.4z M250.6,195.2L250.6,195.2L250.6,195.2
	L250.6,195.2L250.6,195.2c0.1,0.1,0.1,0.1,0,0.2C250.6,195.3,250.6,195.3,250.6,195.2L250.6,195.2z"/>
<path class="st13" d="M268,185c0,0-3.6,16.2,6.3,24.8s-23.4,15.3-29.3,8.1s4.1-10.8,4.1-10.8s5-4.1,0-16.2L268,185z"/>
<path class="st14" d="M277,257.4c-3.5,0.8-7.1,1.2-10.8,1.3h-0.5h-1.4c-4.8,0-9.5-0.5-14.2-1.6l-0.9-0.2c-2-0.5-4-1.2-6-1.9l-1-15
	l4.3-20.8l2.5-12.2l0.7-3.4l0.7,1l0.2,0.2l0.2,0.3l8,10.6l8.2-8.8l0.4-0.5l2.2-2.4l0.9-0.9l0.4,3.1l1.4,11.1l2.7,20.5L277,257.4z"/>
<path class="st15" d="M299.3,247.6c-0.7,0.5-1.4,1-2.1,1.4l-0.5,0.3l-1,0.6c-0.2,0.1-0.3,0.2-0.5,0.3c-0.1,0.1-0.3,0.2-0.4,0.2
	c-2.2-1.9-3.9-4.3-4.8-7.1c-0.1-0.3-0.2-0.7-0.3-1.1c0-0.1,0-0.1,0-0.2l-0.6,1.5l-1.8,4.3c0,0,0.5,2.1,1.5,5.5
	c-0.3,0.2-0.7,0.3-1,0.4c-3.5,1.5-7.1,2.6-10.8,3.4c-3.5,0.8-7.1,1.2-10.8,1.3h-0.5c-0.5-4.6-0.7-9.3-0.5-14l1.3-25.2l0.7-12.7
	l0.4-7c0,0,0.1,0.1,0.4,0.4c0.2,0.2,0.4,0.4,0.7,0.7l0,0c4.5,3.9,10.1,6.2,16,6.6c3.3,0.1,6.4,1.7,8.3,4.4c1.8,2.6,3,5.5,3.4,8.6
	l0.3,2.8l0,0l0.1,0.8l0.1,1L299.3,247.6z"/>
<path class="st16" d="M299.8,247.3l-0.5,0.4c-0.7,0.5-1.4,1-2.1,1.4l-0.5,0.3l-1,0.6c-2.4-1.9-4.1-4.4-5.2-7.2l0,0
	c0-0.1-0.1-0.2-0.1-0.4c-0.1-0.4-0.2-0.7-0.3-1.1l-0.4,1.1l-0.6,1.5l-1.3,3.3c0,0,0.6,2.4,1.6,6.1c-0.2,0.1-0.4,0.2-0.6,0.3
	s-0.6,0.3-1,0.4c-3.5,1.5-7.1,2.6-10.8,3.4c-3.5,0.8-7.1,1.2-10.8,1.3c-0.6-5-0.8-9.9-0.6-14.9l1.3-24.4l0.7-13l0.3-6.1l0.1-1.3
	c0.1,0.1,0.1,0.1,0.2,0.2c4.6,4.4,10.6,7.1,17,7.5c3.3,0.1,6.3,1.7,8.2,4.3c1.9,2.6,3.1,5.6,3.5,8.8l0.5,4.9v0.1l0,0l0.1,1
	L299.8,247.3z"/>
<path class="st15" d="M251.2,202.1v0.6L251,205l-0.6,7.9c0,0-0.3,2.3-0.6,7.5c-0.4,6.8-0.6,18.6,0.2,36.7l-0.9-0.2
	c-2-0.5-4-1.2-6-1.9c-1.2-0.4-2.4-0.9-3.5-1.4c-0.3-0.1-0.6-0.2-0.9-0.4c-0.3-4-0.6-6.5-0.6-6.5s-0.3,0.3-0.7,1
	c-0.2,0.3-0.4,0.6-0.6,1l0,0.1l0,0c-0.2,0.3-0.4,0.7-0.6,1.1c-0.2,0.5-0.5,1-0.7,1.6l-1-0.6l-0.2-0.1c-4.3-2.4-8.2-5.3-11.8-8.7
	c1.6-5.7,3-11.4,3.5-12.1c1.9-2.9,3.3-6,4.2-9.3c1.3-4.5,4.7-8.2,9-10C243.9,208.8,247.9,205.8,251.2,202.1L251.2,202.1L251.2,202.1
	z"/>
<path class="st16" d="M251.2,201.8c-3.9,3.3-8.2,6-12.8,8.1c-4.3,1.8-7.7,5.5-9,10c-1,3.3-2.4,6.4-4.2,9.3
	c-0.5,0.7-1.9,6.4-3.5,12.1c0.3,0.3,0.6,0.6,0.9,0.9c3.6,3.4,7.5,6.3,11.8,8.7l0.2,0.1c0.6-1.5,1.3-2.9,2.2-4.2l0-0.1
	c0.4-0.5,0.6-0.8,0.6-0.8s0.1,0.7,0.2,1.9s0.3,3,0.5,5.1l0.9,0.4c0.3,0.1,0.6,0.3,0.9,0.4c1.1,0.5,2.3,1,3.5,1.4
	c1.9,0.7,3.9,1.3,6,1.9c-0.8-17.9-0.6-29.8-0.3-36.7c0.3-5.6,0.6-8.1,0.6-8.1l1.3-7.3l0.4-2.1l0.2-1L251.2,201.8z"/>
<path class="st15" d="M257.6,200.8c-2.2,0-4.5-0.5-6.5-1.5c-0.3-2.6-1-5.1-2.1-7.5l18.9-5.9c-0.7,3.6-0.8,7.3-0.4,11
	C264.9,199.4,261.3,200.8,257.6,200.8z"/>
<circle class="st13" cx="257.6" cy="185" r="14.9"/>
<g class="st4">
	<path d="M287.9,254c-1.2-4.1-1.8-6.8-1.8-6.8l2.2-5.9c0.2,0.8,0.4,1.6,0.8,2.4l0,0.1l-1.3,3.3c0,0,0.6,2.4,1.6,6.1
		c-0.2,0.1-0.4,0.2-0.6,0.3S288.2,253.9,287.9,254z"/>
</g>
<path class="st13" d="M305.4,226c0,0-1.4-13.1,0-19.4s-15.8,0.9-12.2,9.5c1.9,4.7,4.3,9.3,7.2,13.5L305.4,226z"/>
<path class="st15" d="M310.3,237.7c-3.1,3.6-6.6,6.8-10.5,9.6l-0.5,0.4c-0.7,0.5-1.4,1-2.1,1.4c-1.6-1.9-3.1-4-4.3-6.1l-0.1-0.2
	l3.6-18.9l0.4,0.4c0.2,0.1,0.4,0.4,0.6,0.5l0,0h0c1.9,1.6,5.8,4,7.7-1.6c0.3-1,0.6-2,0.7-3l0.4,1.4l0,0l0.2,0.8l4,15.1l0,0
	L310.3,237.7z"/>
<path class="st16" d="M310.3,237.7c-3.1,3.6-6.6,6.8-10.5,9.6l-0.5,0.4c-0.7,0.5-1.4,1-2.1,1.4l-0.5,0.3c-1.5-1.8-2.8-3.8-3.9-5.8
	l0.1-0.7l3.5-18.3c0,0,0.2,0.2,0.5,0.5l0.6,0.5c0.3,0.2,0.6,0.5,0.9,0.7l0,0c2.1,1.4,5.2,2.5,6.8-2.5c0.3-0.9,0.5-1.9,0.6-2.8
	l0.5,1.7L310.3,237.7z"/>
<path class="st17" d="M310.3,237.7c-3.1,3.6-6.6,6.8-10.5,9.6l-0.5,0.4c-0.7,0.5-1.4,1-2.1,1.4l-0.5,0.3c-1.5-1.8-2.8-3.8-3.9-5.8
	l0.1-0.7l3.5-18.3c0,0,0.2,0.2,0.5,0.5l0.6,0.5c0.3,0.2,0.6,0.5,0.9,0.7l0,0c2.1,1.4,5.2,2.5,6.8-2.5c0.3-0.9,0.5-1.9,0.6-2.8
	l0.5,1.7L310.3,237.7z"/>
<path class="st15" d="M236.8,246.6L236.8,246.6C236.7,246.7,236.7,246.6,236.8,246.6c0.6-2.3,1.2-3.7,1.7-4.2c0,0,0.7,4.5,1.3,11.1
	c-0.3-0.1-0.6-0.2-0.9-0.4l-0.9-0.4c-0.1-2.1-0.3-3.9-0.5-5.1s-0.2-1.9-0.2-1.9S237.1,246.1,236.8,246.6z"/>
<path class="st15" d="M257.8,180.9c0.8-0.4,1.7-0.6,2.5-0.5c0.4,0.2,0.7,0.4,1,0.7c1.2,1.1,2.3,2.4,3.9,2.7c1,0.1,2,0.1,2.9-0.1
	c1.7-0.2,3.3-0.7,4.8-1.5c3.4-2,4.4-6.3,4.6-10.2c0.1-1.3-0.2-3-1.5-3.3c-1.6-0.4-2.8,2.1-4.5,1.9c-0.5-0.1-1-0.4-1.3-0.8
	c-1.1-1.1-1.9-2.6-3-3.7c-1.8-1.6-4-2.6-6.4-2.8c-2.4-0.1-4.8,0.1-7.1,0.7c-1.3,0.2-2.5,0.6-3.6,1.2c-1.1,0.6-1.9,1.7-2.2,3
	c-0.1,0.9,0.1,1.8,0,2.6c-0.3,1.2-1.2,2.2-2.2,2.7c-1,0.6-2.2,1-3.2,1.8c-1.6,1.2-2.6,2.9-3,4.9c-0.4,1.9-0.5,3.9-0.2,5.8
	c0.4,3.4,1.3,6.6,2.8,9.7c0.5,1.1,1.1,2.1,1.8,3c1.1,1.2,2.3,2.2,3.6,3c0.5,0.4,1.2,0.7,1.8,0.5c0.2-0.1,0.4-0.2,0.5-0.3
	c1.3-1.1,1.4-3,1-4.6s-1.1-3.2-1.2-4.8c-0.1-0.5,0-0.9,0.3-1.4c0.3-0.3,0.6-0.6,0.9-0.9c0.4-0.5,0.8-1.1,1-1.7
	c0.8-1.5,1.3-3.2,1.5-4.9c0.1-1.4-0.2-2.8-0.9-4C254,181.1,256,181.5,257.8,180.9z"/>
<path class="st18" d="M257.8,180.4c0.8-0.4,1.7-0.6,2.5-0.5c0.4,0.2,0.7,0.4,1,0.7c1.2,1.1,2.3,2.4,3.9,2.7c1,0.1,2,0.1,2.9-0.1
	c1.7-0.2,3.3-0.7,4.8-1.5c3.4-2,4.4-6.3,4.6-10.2c0.1-1.3-0.2-3-1.5-3.3c-1.6-0.4-2.8,2.1-4.5,1.9c-0.5-0.1-1-0.4-1.3-0.8
	c-1.1-1.1-1.9-2.6-3-3.7c-1.8-1.6-4-2.6-6.4-2.8c-2.4-0.1-4.8,0.1-7.1,0.7c-1.3,0.2-2.5,0.6-3.6,1.2c-1.1,0.6-1.9,1.7-2.2,3
	c-0.1,0.9,0.1,1.8,0,2.6c-0.3,1.2-1.2,2.2-2.2,2.7c-1,0.6-2.2,1-3.2,1.8c-1.6,1.2-2.6,2.9-3,4.9c-0.4,1.9-0.5,3.9-0.2,5.8
	c0.4,3.4,1.3,6.6,2.8,9.7c0.5,1.1,1.1,2.1,1.8,3c1.1,1.2,2.3,2.2,3.6,3c0.5,0.4,1.2,0.7,1.8,0.5c0.2-0.1,0.4-0.2,0.5-0.3
	c1.3-1.1,1.4-3,1-4.6s-1.1-3.2-1.2-4.8c-0.1-0.5,0-0.9,0.3-1.4c0.3-0.3,0.6-0.6,0.9-0.9c0.4-0.5,0.8-1.1,1-1.7
	c0.8-1.5,1.3-3.2,1.5-4.9c0.1-1.4-0.2-2.8-0.9-4C254,180.6,256,181,257.8,180.4z"/>
<ellipse class="st19" cx="176" cy="557.1" rx="25.2" ry="9.2"/>
<ellipse class="st20" cx="176" cy="556.1" rx="12.9" ry="4.7"/>
<path class="st21" d="M150.8,555.1c0,0,27.8,15.4,50.4,2.1c0,0-3.1,53.5-18.5,58.6h-20.6C162.1,615.7,144.6,579.7,150.8,555.1z"/>
<path class="st5" d="M197.8,457.1c7.1,25.8-23.1,99.4-23.1,99.4s-63.4-48-70.5-73.8c-7.1-25.8,8.1-52.5,34-59.6
	C164,416,190.7,431.2,197.8,457.1L197.8,457.1z"/>
<path class="st15" d="M197.8,457.1c7.1,25.8-23.1,99.4-23.1,99.4s-63.4-48-70.5-73.8c-7.1-25.8,8.1-52.5,34-59.6
	C164,416,190.7,431.2,197.8,457.1L197.8,457.1z"/>
<path class="st22" d="M138.4,423.2c0,0,39.5,59.6,36.5,133.4"/>
<path class="st5" d="M207.8,504.3c0,0-35.8-19.5-31.2,52.4c0,0,29.9-1.1,40.4-25.4c4.3-9.8,0.6-21.3-8.7-26.7L207.8,504.3z"/>
<path class="st22" d="M208.4,504.4c0,0-4.6,37.3-31.8,52.3"/>
<path class="st20" d="M197.8,558.8c-1,12.3-5.3,50.5-18.2,54.8h-18.4c0.6,1.3,0.9,2.1,0.9,2.1h20.6c15.4-5.2,18.5-58.6,18.5-58.6
	C200.1,557.7,199,558.3,197.8,558.8z"/>
<rect x="430.1" y="472.8" class="st3" width="209.2" height="121.4"/>
<linearGradient id="SVGID_4_" gradientUnits="userSpaceOnUse" x1="803.6499" y1="3.149" x2="803.6499" y2="615.4843" gradientTransform="matrix(1 0 0 -1 -53 749.07)">
	<stop  offset="0" style="stop-color:#808080;stop-opacity:0.25"/>
	<stop  offset="0.54" style="stop-color:#808080;stop-opacity:0.12"/>
	<stop  offset="1" style="stop-color:#808080;stop-opacity:0.1"/>
</linearGradient>
<path class="st23" d="M982.8,233.2c0-0.4,0-0.8,0-1.2c-0.4-4.9-5-8.4-9.6-10.3s-9.7-2.8-13.8-5.6c-6.9-4.8-9-13.8-9.6-22.1
	c-0.2-2.6-0.3-5.1-0.3-7.7s0.2-5.4,0.4-8.1c0.4-4.5,1.1-9.1,1-13.6c0.2-4.3-0.6-8.6-2.4-12.5c-4.1-8.1-13.2-12.2-21.7-15.7
	c-3.3-1.4-6.6-2.7-10.1-2.9c-3.7-0.2-7.4,1.1-10.9,2.2c-5.6,1.9-11.3,4.4-17.1,5.7c-3.3,0.7-6.8,0.2-10,1.3c-6.2,2.3-7.5,7.9-7.5,14
	c0,0.4,0,0.8,0,1.2c-0.6-0.6-1.3-1.1-1.9-1.6l-0.4-0.3c-0.7-0.5-1.4-1-2.1-1.5l-0.4-0.2c-1.5-1-3.1-1.9-4.8-2.6l-0.2-0.1
	c-0.8-0.4-1.7-0.7-2.5-1l-0.2-0.1c-1.8-0.6-3.6-1.1-5.5-1.4l0,0c-11.9-2.2-24,1.6-32.5,10.2l-6.9,7l0,0c-31.2-7-32.6,20.1-32.6,20.1
	l0.2-0.1l-0.1,0.2c0.7,3.4,1.6,6.8,2.7,10.2L542.8,443.1l-24.4,75.6l13.7-4.9l62.5-22.3l223.9-228.8c16.8,11.9,34.2,27.9,34.2,27.9
	s-10.8,5.7-6.8,31.9c4.9,32-2.5,77.5-2.5,77.5v29.5l1.4-0.4c-0.2,1-0.3,2-0.5,3.1c-2.3,14.8-2.6,29.8-0.9,44.7
	c3.7,31.3,18.5,73.9,18.5,73.9s5.5,15,6.8,27c0.2,2.4,0.7,4.7,1.6,7c2.8,6.6,4.2,13.7,4.3,20.9c0,13.1,1.7,32.7,9.5,52.7
	c6.2,16.1,8.6,25.5,9.2,31c-4.4,5.9-10.2,12.2-14.8,12.9c-8.6,1.2-25.3,2.4-14.2,16.8c0.4,0.5,0.8,1,1.3,1.4
	c-8.4,1.4-17.7,4.4-8.7,16.1c11.1,14.4,76.4,7.8,76.4,7.8s0.4-8,0-16.8c4.6-0.3,7.4-0.6,7.4-0.6s1.8-34.9-6.2-39.1
	c-1.5,0.2-2.9,0.5-4.3,1.1c-0.9-4.8-1.5-10.8-1.9-15.2l3.2-0.2v-52.3c0,0-3.7-32.5-17.2-46.9c-1.7-1.8-3.2-3.8-4.4-6
	c0.1-4.2,0.1-10,0.1-16.7c0.5-0.9,1.2-1.8,1.9-2.5c0,0,7.4-9,32.7-66.1c14.9-33.7,11.6-53.1,6.3-63.4c-1-3.7-3.6-14.1-7-33.4
	c-4.3-24.6,0.6-48.7,0.6-48.7s16-41.5,23.4-58.3c1.7-4.1,2.4-8.5,2.1-12.9c1.9-1.4,2.9-3.8,3.7-6l7.6-20.2
	C982.2,237.8,983,235.5,982.8,233.2L982.8,233.2z M879.8,196.8c0.8,1.3,1.7,2.5,2.8,3.7l0,0c0,0-1.1-1.2-3-3.1
	C879.6,197.1,879.7,196.9,879.8,196.8z M842.4,238.3l20.9-21.3c7.2,6.6,15,13.3,21.4,18.9c-0.6,2.8-1.4,5.6-2.4,8.4
	c-2.8,1.4-6.5,1.8-11-0.6C864.2,239.8,851,238.6,842.4,238.3z"/>
<path class="st24" d="M825.6,159.6c0,0-15.5,8.9-10.7,21.5c0,0,16.1,4.8,22.6,16.7c6.5,11.9,57.2,54.8,57.2,54.8l36.9-18.5
	c0,0-12.8-17.2-53.5-29.1c0,0-24-25.7-32.3-30.4C837.6,169.7,825.6,159.6,825.6,159.6z"/>
<path class="st20" d="M825.6,159.6c0,0-15.5,8.9-10.7,21.5c0,0,16.1,4.8,22.6,16.7c6.5,11.9,57.2,54.8,57.2,54.8l36.9-18.5
	c0,0-12.8-17.2-53.5-29.1c0,0-24-25.7-32.3-30.4C837.6,169.7,825.6,159.6,825.6,159.6z"/>
<path class="st5" d="M549.6,445.4l268.8-281.4c13.2-13.8,35.2-14.3,49-1.1l0,0c13.8,13.2,14.3,35.2,1.1,49L599.8,493.4l-73.7,27
	L549.6,445.4z"/>
<path class="st25" d="M852.8,158L852.8,158c13.8,13.2,14.3,35.2,1.1,49L585.1,488.3l-55.4,20.2l-3.7,11.8l73.7-27l268.8-281.3
	c13.2-13.8,12.7-35.8-1.1-49l0,0c-5.5-5.3-12.7-8.6-20.3-9.4C849.1,154.9,851,156.3,852.8,158z"/>
<polygon class="st26" points="549.6,445.5 599.8,493.4 539.3,515.5 526,520.3 534.4,493.7 "/>
<path class="st27" d="M534.4,493.7c1.8,0.4,3.6,1.1,5.2,2.1c1.8,1.3,3.1,3.6,2.6,5.8c-0.5,1.4-1.2,2.6-2.1,3.8
	c-1.8,3.1-2.2,6.8-0.9,10.2l-13.3,4.8L534.4,493.7z"/>
<path class="st28" d="M922.2,667.9c0,0,1.8,26.2,4.8,29.2s-26.8,4.8-26.8,4.8l4.2-34L922.2,667.9z"/>
<path class="st20" d="M922.2,667.9c0,0,1.8,26.2,4.8,29.2s-26.8,4.8-26.8,4.8l4.2-34L922.2,667.9z"/>
<path class="st29" d="M928.7,688.1c0,0-4.2,0-19.1,7.8c0,0-10.1-1.8-14.3-16.1c0,0-12.5,21.5-20.9,22.6s-24.4,2.4-13.7,16.7
	s73.9,7.8,73.9,7.8S936.5,692.3,928.7,688.1z"/>
<path class="st20" d="M928.7,688.1c0,0-4.2,0-19.1,7.8c0,0-10.1-1.8-14.3-16.1c0,0-12.5,21.5-20.9,22.6s-24.4,2.4-13.7,16.7
	s73.9,7.8,73.9,7.8S936.5,692.3,928.7,688.1z"/>
<path class="st28" d="M919.8,708.4l-4.2,11.3l-27.4-7.8l1.6-11.2l0.4-2.7l1-7.5c0,0,23.2-6,23.2-3c0.3,2.5,0.8,4.9,1.5,7.3
	c1,3.7,2.2,7.8,3,10.6C919.4,707.2,919.8,708.4,919.8,708.4z"/>
<path class="st30" d="M904.8,553c-1.9,3.2-4,9.1,0,16.6c1.2,2.2,2.6,4.1,4.3,5.9c13.1,14.3,16.7,46.5,16.7,46.5v51.8l-8.9,0.7
	l-14.3,1.1L881,587.4c0,0-12.5-64.4-6.5-75.7s11.3-82.2,11.3-82.2l5-5.1l11.7-12.2h34c2.7,1.9,5,4.5,6.6,7.4
	c5.7,9.4,10.8,29.1-4.8,65.3c-24.4,56.6-31.6,65.5-31.6,65.5C906,551.2,905.3,552.1,904.8,553z"/>
<path class="st20" d="M904.8,553c-1.9,3.2-4,9.1,0,16.6c1.2,2.2,2.6,4.1,4.3,5.9c13.1,14.3,16.7,46.5,16.7,46.5v51.8l-8.9,0.7
	l-14.3,1.1L881,587.4c0,0-12.5-64.4-6.5-75.7s11.3-82.2,11.3-82.2l5-5.1l11.7-12.2h34c2.7,1.9,5,4.5,6.6,7.4
	c5.7,9.4,10.8,29.1-4.8,65.3c-24.4,56.6-31.6,65.5-31.6,65.5C906,551.2,905.3,552.1,904.8,553z"/>
<path class="st15" d="M915.9,694.8l-25.8,3.2l1-7.5c0,0,23.2-6,23.2-3C914.7,690,915.2,692.4,915.9,694.8z"/>
<path class="st30" d="M903.1,476.6c0,0,1.5,46.9,1.7,76.4c0,6.7,0,12.5,0,16.6c0,2.2-0.1,4.4-0.5,6.5c-1.8,5.4,1.8,17.3,1.8,17.3
	c14.9,39.3,10.7,73.9,10.7,73.9v26.2l-28.6,3.6c0,0,4.8-3.6-8.3-38.1c-7.5-19.9-9.2-39.3-9.2-52.3c-0.1-7.1-1.5-14.1-4.2-20.7
	c-0.8-2.2-1.3-4.5-1.5-6.9c-1.2-11.9-6.5-26.8-6.5-26.8s-14.3-42.3-17.9-73.3c-1.7-14.7-1.4-29.7,0.8-44.3c0.5-3.7,1.2-7.4,2.2-11.1
	c0,0,58.2-36.7,80.2-11.3c2.1,2.5,3.8,5.3,5,8.3c1.2,3,2.1,6.1,2.8,9.3C938.4,463.5,903.1,476.6,903.1,476.6z"/>
<circle class="st28" cx="901.3" cy="185.2" r="30.4"/>
<path class="st28" d="M884.6,204.3c0,0,12.5,35.2,0,53.6s39.9,12.5,39.9,12.5l20.3-24.4c0,0-23.8,0-25-41.7S884.6,204.3,884.6,204.3
	z"/>
<path class="st15" d="M944.8,426.5c-4.3,1.5-8.8,2.6-13.3,3.3c-7.4,1.1-16.2,1.2-21.3-3.3c-3-2.7-10.5-3-19.5-2.1
	c-18.9,1.8-44.5,8.9-49.4,10.3c0.5-3.7,1.2-7.4,2.2-11.1c0,0,58.2-36.7,80.2-11.3h12.7c2.7,1.9,5,4.5,6.6,7.4
	C944.2,424.4,944.8,426.5,944.8,426.5z"/>
<path class="st15" d="M919.8,708.4l-4.2,11.3l-27.4-7.8l1.6-11.2c4.7,10.4,12.7,11.8,12.7,11.8c8.7-4.5,13.7-6.4,16.4-7.2
	C919.4,707.2,919.8,708.4,919.8,708.4z"/>
<path class="st29" d="M921.6,705.4c0,0-4.2,0-19.1,7.8c0,0-10.1-1.8-14.3-16.1c0,0-12.5,21.5-20.9,22.6s-24.4,2.4-13.7,16.7
	s73.9,7.8,73.9,7.8S929.3,709.6,921.6,705.4z"/>
<path class="st28" d="M780.2,191c0,0,1.3-26.9,31.6-19.9l-7.8,14.5L780.2,191z"/>
<path class="st24" d="M921,253.1c0,0-29.2-4.8-37-10.7c0,0-6,11.3-16.7,5.4s-35.8-5.4-35.8-5.4s-20.9-11.3-25-37
	c0,0-4.2-15.5-3-19.7c0,0-15.5-16.1-23.2,5.4c3,14.9,5.4,13.7,4.8,25.6l9.5,26.2c0,0,0.6,8.9,17.9,20.9s37,30.4,37,30.4
	s-10.4,5.7-6.5,31.6c4.7,31.7-2.4,76.9-2.4,76.9v29.2c0,0,59.6-17.3,69.7-8.3s34.6,0,34.6,0s-3-10.1-7.2-34.6s0.6-48.3,0.6-48.3
	s15.5-41.1,22.6-57.8s-5.4-39.3-17.9-47.7s-17.2-3.3-17.2-3.3S947.8,247.8,921,253.1z"/>
<path class="st15" d="M868.4,177.8c0,1.2,0.2,2.5,0.6,3.6c0.7,1.3,1.6,2.5,2.8,3.5c4.5,4.4,8.4,9.5,10,15.6c1.1,4.1,1,8.4,0.9,12.6
	c-0.3,17.1-1,35.6-11.5,49c-3.9,5-8.9,8.9-13.6,13.1c-0.7,0.5-1.2,1.2-1.4,1.9c-0.1,0.8,0,1.6,0.4,2.4c2.2,4.5,6.8,7.3,11.1,9.8
	c2,1.1,4.1,2.3,6.4,2.4c5.4,0.2,9-5.5,13.9-7.8c7.2-3.3,15.2,1.3,22.4,4.7c5.2,2.5,10.6,4.3,16.1,5.6c7.6,1.8,16.2,2.2,22.7-2.3
	c3.7-2.6,6.2-6.6,7.1-11c0.5-2.9,0.4-6.3,2.6-8.3c1.1-1,2.7-1.4,3.9-2.3c1.9-1.4,2.8-3.8,3.6-6l7.3-20.1c0.9-2.1,1.4-4.4,1.4-6.7
	c-0.3-4.8-4.8-8.3-9.3-10.2s-9.4-2.8-13.4-5.6c-6.7-4.8-8.7-13.7-9.3-21.9c-0.4-5.6-0.4-11.2,0.1-16.9c0.7-8.3,2.3-17.2-1.3-24.6
	c-4-8-12.8-12.1-21-15.6c-3.2-1.3-6.4-2.7-9.8-2.8c-3.6-0.2-7.1,1-10.6,2.2c-5.4,1.9-11,4.3-16.6,5.6c-3.2,0.7-6.6,0.2-9.7,1.3
	C863.3,153.2,868.4,168.8,868.4,177.8z"/>
<path class="st31" d="M868.4,176.6c0,1.2,0.2,2.5,0.6,3.6c0.7,1.3,1.6,2.5,2.8,3.5c4.5,4.4,8.4,9.5,10,15.6c1.1,4.1,1,8.4,0.9,12.6
	c-0.3,17.1-1,35.6-11.5,49c-3.9,5-8.9,8.9-13.6,13.1c-0.7,0.5-1.2,1.1-1.4,1.9c-0.1,0.8,0,1.6,0.4,2.4c2.2,4.5,6.8,7.3,11.1,9.8
	c2,1.1,4.1,2.3,6.4,2.4c5.4,0.2,9-5.5,13.9-7.8c7.2-3.3,15.2,1.3,22.4,4.7c5.2,2.5,10.6,4.3,16.1,5.6c7.6,1.8,16.2,2.2,22.7-2.3
	c3.7-2.6,6.2-6.6,7.1-11c0.5-2.9,0.4-6.3,2.6-8.3c1.1-1,2.7-1.4,3.9-2.3c1.9-1.4,2.8-3.8,3.6-6l7.3-20.1c0.9-2.1,1.4-4.4,1.4-6.7
	c-0.3-4.8-4.8-8.3-9.3-10.2s-9.4-2.8-13.4-5.6c-6.7-4.8-8.7-13.7-9.3-21.9c-0.4-5.6-0.4-11.2,0.1-16.9c0.7-8.3,2.3-17.2-1.3-24.6
	c-4-8-12.8-12.1-21-15.6c-3.2-1.3-6.4-2.7-9.8-2.8c-3.6-0.2-7.1,1-10.6,2.2c-5.4,1.9-11,4.3-16.6,5.6c-3.2,0.7-6.6,0.2-9.7,1.3
	C863.3,152.1,868.4,167.6,868.4,176.6z"/>
<path class="st20" d="M844.4,339.2c0,0,4.8-1.1,28.6-4.7s65.5,4.8,65.5,4.8"/>
</svg>
