<svg id="Layer_1" enable-background="new 0 0 128 128" height="512" viewBox="0 0 128 128" width="512" xmlns="http://www.w3.org/2000/svg"><g><g><path d="m118.588 107.581-6.711-6.711c.049-.31.082-.624.082-.948v-77.98c0-3.309-2.691-6-6-6h-88c-3.309 0-6 2.691-6 6v77.98c0 3.309 2.691 6 6 6h84.92l8.684 8.684c.968.968 2.24 1.453 3.512 1.453s2.544-.484 3.513-1.453c1.937-1.937 1.937-5.089 0-7.025z" fill="#e6e7e8"/></g><g><g><g><g><g><g><path d="m106.959 17.942v10.78h-98v-10.78c0-2.76 2.24-5 5-5h88c2.77 0 5 2.24 5 5z" fill="#0089ef"/></g><g><path d="m99 18.221c-1.287 0-2.33 1.043-2.33 2.33s1.043 2.33 2.33 2.33 2.33-1.043 2.33-2.33-1.043-2.33-2.33-2.33z" fill="#fa759e"/><path d="m89.524 18.221c-1.287 0-2.33 1.043-2.33 2.33s1.043 2.33 2.33 2.33 2.33-1.043 2.33-2.33-1.043-2.33-2.33-2.33z" fill="#ffd7e5"/><path d="m80.048 18.221c-1.287 0-2.33 1.043-2.33 2.33s1.043 2.33 2.33 2.33 2.33-1.043 2.33-2.33-1.043-2.33-2.33-2.33z" fill="#d4fbff"/></g><g><path d="m101.959 12.942h-88c-2.76 0-5 2.24-5 5v3c0-2.76 2.24-5 5-5h88c2.77 0 5 2.24 5 5v-3c0-2.76-2.23-5-5-5z" fill="#fff"/></g><path d="m106.959 28.722v67.2c0 2.76-2.23 5-5 5h-88c-2.76 0-5-2.24-5-5v-67.2z" fill="#d4fbff"/></g><path d="m96.285 38.035h-76.651c-1.105 0-2 .895-2 2v10.065c0 1.105.895 2 2 2h76.652c1.105 0 2-.895 2-2v-10.065c-.001-1.105-.896-2-2.001-2z" fill="#fa759e"/></g></g></g><g><g><g><path d="m94.125 87.555 3.458 3.458c-.594.184-1.146.509-1.612.976s-.792 1.018-.976 1.612l-3.458-3.458c.474-.375.926-.785 1.365-1.223.438-.439.848-.892 1.223-1.365z" fill="#6dc9f7"/></g><path d="m92.904 88.921c-6.693 6.693-17.583 6.693-24.276 0s-6.694-17.584-.001-24.277 17.584-6.693 24.278 0c6.693 6.694 6.692 17.584-.001 24.277z" fill="#0089ef"/><ellipse cx="80.766" cy="76.783" fill="#6dc9f7" rx="13.167" ry="13.167" transform="matrix(.29 -.957 .957 .29 -16.127 131.832)"/><g><path d="m113.882 104.288-12.303-12.303c-1.543-1.543-4.068-1.543-5.611 0s-1.543 4.068 0 5.611l12.302 12.303c1.543 1.543 4.068 1.543 5.611 0s1.544-4.068.001-5.611z" fill="#fa759e"/><g fill="#3a2c60"><path d="m32.709 13.942h6.296c.553 0 1-.448 1-1s-.447-1-1-1h-6.296c-.553 0-1 .448-1 1s.448 1 1 1z"/><path d="m54.704 62.209h-36.413c-.553 0-1 .448-1 1s.447 1 1 1h36.413c.553 0 1-.448 1-1s-.447-1-1-1z"/><path d="m54.704 70.807h-36.413c-.553 0-1 .448-1 1s.447 1 1 1h36.413c.553 0 1-.448 1-1s-.447-1-1-1z"/><path d="m54.704 88.004h-36.413c-.553 0-1 .448-1 1s.447 1 1 1h36.413c.553 0 1-.448 1-1s-.447-1-1-1z"/><path d="m54.704 79.406h-36.413c-.553 0-1 .448-1 1s.447 1 1 1h36.413c.553 0 1-.448 1-1s-.447-1-1-1z"/><path d="m90.783 66.765c-2.676-2.676-6.233-4.149-10.018-4.149-3.783 0-7.341 1.474-10.017 4.149-5.523 5.523-5.523 14.511 0 20.035 2.762 2.762 6.389 4.143 10.018 4.143 3.627 0 7.255-1.381 10.017-4.143 2.676-2.676 4.149-6.233 4.149-10.018 0-3.783-1.474-7.341-4.149-10.017zm-1.414 18.621c-4.743 4.742-12.461 4.744-17.206 0-4.743-4.744-4.743-12.463 0-17.207 2.298-2.298 5.354-3.563 8.603-3.563 3.25 0 6.306 1.266 8.604 3.563 2.298 2.298 3.563 5.354 3.563 8.603-.001 3.25-1.267 6.306-3.564 8.604z"/><path d="m114.588 103.581-6.716-6.716c.051-.308.087-.621.087-.943v-77.98c0-3.309-2.691-6-6-6h-58c-.553 0-1 .448-1 1s.447 1 1 1h58c2.206 0 4 1.794 4 4v9.78h-96v-9.78c0-2.206 1.794-4 4-4h13.862c.553 0 1-.448 1-1s-.447-1-1-1h-13.862c-3.309 0-6 2.691-6 6v77.98c0 3.309 2.691 6 6 6h84.92l8.684 8.684c.968.968 2.24 1.453 3.512 1.453s2.544-.484 3.513-1.453c1.937-1.937 1.937-5.089 0-7.025zm-100.629-3.659c-2.206 0-4-1.794-4-4v-66.2h96v65.23l-3.673-3.673c-1.193-1.193-2.846-1.646-4.393-1.369l-2.454-2.454c5.169-7.1 4.573-17.118-1.828-23.519-7.084-7.083-18.608-7.085-25.692 0-7.083 7.083-7.083 18.608.001 25.691 3.541 3.542 8.193 5.313 12.845 5.313 3.756 0 7.502-1.175 10.673-3.483l2.455 2.455c-.276 1.546.176 3.199 1.368 4.391l1.618 1.618zm81.302-8.643c-.201.201-.368.422-.528.647l-1.739-1.739c.205-.187.419-.359.617-.557s.37-.412.557-.617l1.739 1.739c-.224.158-.445.326-.646.527zm-3.064-3.064c-6.303 6.302-16.56 6.303-22.862 0-6.304-6.304-6.304-16.56-.001-22.863 3.152-3.152 7.292-4.728 11.432-4.728 4.141 0 8.28 1.576 11.433 4.728 6.301 6.303 6.301 16.559-.002 22.863zm20.977 20.977c-1.157 1.157-3.041 1.156-4.196 0l-12.303-12.303c-.558-.558-.864-1.303-.864-2.098 0-.796.307-1.541.864-2.099.558-.557 1.303-.864 2.099-.864s1.541.307 2.099.864l12.302 12.302c.558.558.864 1.303.864 2.098-.001.797-.307 1.542-.865 2.1z"/></g></g></g></g></g></g></svg>